<svg id="Layer_1" data-name="Layer 1" xmlns="http://www.w3.org/2000/svg" viewBox="0 0 280.72 180.84"><defs><style>.cls-1{fill:#fff;}</style></defs><title>scrollaaa</title><path class="cls-1" d="M155.84,193.11a40.15,40.15,0,0,0-40.2,40.07v.07a39.85,39.85,0,0,0,11.71,28.32L227.57,362.15a40.15,40.15,0,0,0,56.86,0L384.65,261.57a39.85,39.85,0,0,0,11.71-28.32v-.07a40.13,40.13,0,0,0-68.56-28.26L256,277l-71.8-72.05A39.86,39.86,0,0,0,155.84,193.11Zm13.92,26.21,79,79.29a10.2,10.2,0,0,0,14.45,0l79-79.29A19.73,19.73,0,0,1,376,233.21v0a19.62,19.62,0,0,1-5.75,13.93L270,347.75a19.72,19.72,0,0,1-28,0L141.8,247.18A19.58,19.58,0,0,1,136,233.25v0a19.74,19.74,0,0,1,33.72-13.89Z" transform="translate(-115.64 -193.11)"/><path class="cls-1" d="M218.19,313.85l7.14,7.14a10.2,10.2,0,1,0,14.42-14.42l-7.14-7.14a10.2,10.2,0,1,0-14.42,14.42Z" transform="translate(-115.64 -193.11)"/><path class="cls-1" d="M145.78,241.44l50,50A10.2,10.2,0,0,0,210.18,277l-50-50a10.2,10.2,0,0,0-14.42,14.43Z" transform="translate(-115.64 -193.11)"/></svg>