<?xml version="1.0"?>
<svg xmlns="http://www.w3.org/2000/svg" xmlns:xlink="http://www.w3.org/1999/xlink" version="1.1" id="Capa_1" x="0px" y="0px" viewBox="0 0 512 512" style="enable-background:new 0 0 512 512;" xml:space="preserve" width="512px" height="512px" class=""><g><script xmlns="" id="tinyhippos-injected" class="active-path" style="fill:#FFFDFD" data-old_color="#FDFBFB"/><g>
	<g>
		<path d="M336.42,276.776c-1.477,5.954-3.637,11.75-6.418,17.226l13.425,6.82c3.298-6.491,5.858-13.362,7.609-20.421    L336.42,276.776z" data-original="#000000" class="active-path" data-old_color="#FDFBFB" fill="#FFFfff"/>
	</g>
</g><g>
	<g>
		<path d="M308.986,175.24l-8.091,12.701c23.75,15.128,37.928,40.946,37.928,69.064h15.059    C353.882,223.713,337.099,193.146,308.986,175.24z" data-original="#000000" class="active-path" data-old_color="#FDFBFB" fill="#FFFfff"/>
	</g>
</g><g>
	<g>
		<rect x="248.471" y="45.176" width="15.059" height="60.235" data-original="#000000" class="active-path" data-old_color="#FDFBFB" fill="#FFFfff"/>
	</g>
</g><g>
	<g>
		<rect x="248.471" width="15.059" height="30.118" data-original="#000000" class="active-path" data-old_color="#FDFBFB" fill="#FFFfff"/>
	</g>
</g><g>
	<g>
		
			<rect x="120.692" y="98.101" transform="matrix(0.7071 -0.7071 0.7071 0.7071 -53.1092 128.2202)" width="15.059" height="60.235" data-original="#000000" class="active-path" data-old_color="#FDFBFB" fill="#FFFfff"/>
	</g>
</g><g>
	<g>
		<rect x="78.112" y="70.57" transform="matrix(0.7071 -0.7071 0.7071 0.7071 -35.4648 85.6378)" width="15.059" height="30.117" data-original="#000000" class="active-path" data-old_color="#FDFBFB" fill="#FFFfff"/>
	</g>
</g><g>
	<g>
		<rect x="45.176" y="248.471" width="60.235" height="15.059" data-original="#000000" class="active-path" data-old_color="#FDFBFB" fill="#FFFfff"/>
	</g>
</g><g>
	<g>
		<rect y="248.471" width="30.118" height="15.059" data-original="#000000" class="active-path" data-old_color="#FDFBFB" fill="#FFFfff"/>
	</g>
</g><g>
	<g>
		
			<rect x="98.103" y="376.249" transform="matrix(0.7071 -0.7071 0.7071 0.7071 -233.8172 203.0712)" width="60.235" height="15.059" data-original="#000000" class="active-path" data-old_color="#FDFBFB" fill="#FFFfff"/>
	</g>
</g><g>
	<g>
		
			<rect x="70.563" y="418.838" transform="matrix(0.7071 -0.7071 0.7071 0.7071 -276.4095 185.4235)" width="30.117" height="15.059" data-original="#000000" class="active-path" data-old_color="#FDFBFB" fill="#FFFfff"/>
	</g>
</g><g>
	<g>
		<rect x="248.471" y="406.588" width="15.059" height="60.235" data-original="#000000" class="active-path" data-old_color="#FDFBFB" fill="#FFFfff"/>
	</g>
</g><g>
	<g>
		<rect x="248.471" y="481.882" width="15.059" height="30.118" data-original="#000000" class="active-path" data-old_color="#FDFBFB" fill="#FFFfff"/>
	</g>
</g><g>
	<g>
		
			<rect x="376.25" y="353.661" transform="matrix(0.7071 -0.7071 0.7071 0.7071 -158.9663 383.7806)" width="15.059" height="60.235" data-original="#000000" class="active-path" data-old_color="#FDFBFB" fill="#FFFfff"/>
	</g>
</g><g>
	<g>
		
			<rect x="418.836" y="411.312" transform="matrix(0.7071 -0.7071 0.7071 0.7071 -176.61 426.3653)" width="15.059" height="30.117" data-original="#000000" class="active-path" data-old_color="#FDFBFB" fill="#FFFfff"/>
	</g>
</g><g>
	<g>
		<rect x="406.588" y="248.471" width="60.235" height="15.059" data-original="#000000" class="active-path" data-old_color="#FDFBFB" fill="#FFFfff"/>
	</g>
</g><g>
	<g>
		<rect x="481.882" y="248.471" width="30.118" height="15.059" data-original="#000000" class="active-path" data-old_color="#FDFBFB" fill="#FFFfff"/>
	</g>
</g><g>
	<g>
		
			<rect x="353.661" y="120.693" transform="matrix(0.7071 -0.7071 0.7071 0.7071 21.7396 308.9277)" width="60.235" height="15.059" data-original="#000000" class="active-path" data-old_color="#FDFBFB" fill="#FFFfff"/>
	</g>
</g><g>
	<g>
		
			<rect x="411.321" y="78.096" transform="matrix(0.7071 -0.7071 0.7071 0.7071 64.3373 326.5749)" width="30.117" height="15.059" data-original="#000000" class="active-path" data-old_color="#FDFBFB" fill="#FFFfff"/>
	</g>
</g><g>
	<g>
		
			<rect x="171.387" y="62.389" transform="matrix(0.9239 -0.3827 0.3827 0.9239 -13.1373 73.7923)" width="15.059" height="15.059" data-original="#000000" class="active-path" data-old_color="#FDFBFB" fill="#FFFfff"/>
	</g>
</g><g>
	<g>
		<rect x="159.867" y="34.563" transform="matrix(0.9239 -0.3827 0.3827 0.9239 -3.3655 67.265)" width="15.059" height="15.059" data-original="#000000" class="active-path" data-old_color="#FDFBFB" fill="#FFFfff"/>
	</g>
</g><g>
	<g>
		
			<rect x="62.398" y="171.392" transform="matrix(0.3827 -0.9239 0.9239 0.3827 -122.1341 175.0549)" width="15.059" height="15.059" data-original="#000000" class="active-path" data-old_color="#FDFBFB" fill="#FFFfff"/>
	</g>
</g><g>
	<g>
		
			<rect x="34.563" y="159.869" transform="matrix(0.3827 -0.9239 0.9239 0.3827 -128.6718 142.2248)" width="15.059" height="15.059" data-original="#000000" class="active-path" data-old_color="#FDFBFB" fill="#FFFfff"/>
	</g>
</g><g>
	<g>
		
			<rect x="62.395" y="325.557" transform="matrix(0.9239 -0.3827 0.3827 0.9239 -122.1455 52.1149)" width="15.059" height="15.059" data-original="#000000" class="active-path" data-old_color="#FDFBFB" fill="#FFFfff"/>
	</g>
</g><g>
	<g>
		
			<rect x="34.576" y="337.062" transform="matrix(0.9239 -0.3827 0.3827 0.9239 -128.6664 42.3448)" width="15.059" height="15.059" data-original="#000000" class="active-path" data-old_color="#FDFBFB" fill="#FFFfff"/>
	</g>
</g><g>
	<g>
		
			<rect x="171.404" y="434.543" transform="matrix(0.3827 -0.9239 0.9239 0.3827 -297.9633 438.2085)" width="15.059" height="15.059" data-original="#000000" class="active-path" data-old_color="#FDFBFB" fill="#FFFfff"/>
	</g>
</g><g>
	<g>
		
			<rect x="159.884" y="462.365" transform="matrix(0.3827 -0.9239 0.9239 0.3827 -330.7785 444.7397)" width="15.059" height="15.059" data-original="#000000" class="active-path" data-old_color="#FDFBFB" fill="#FFFfff"/>
	</g>
</g><g>
	<g>
		<path d="M384.837,263.529h6.692v-15.059h-6.817c-0.799-12.08-3.279-23.707-7.212-34.648l46.592-19.299l-5.763-13.912    l-46.755,19.367c-5.291-10.586-11.999-20.346-19.886-29.018l5.469-5.469l-10.648-10.649l-5.588,5.588    c-8.784-7.643-18.619-14.106-29.253-19.15l19.721-47.611l-13.912-5.763l-19.771,47.734c-10.823-3.639-22.288-5.871-34.175-6.471    v-8.697h-15.059v8.824c-11.813,0.782-23.193,3.172-33.923,6.956l-20.024-48.344l-13.912,5.763l20.056,48.42    c-10.424,5.131-20.049,11.638-28.644,19.284l-6.532-6.533l-10.648,10.649l6.533,6.533c-7.646,8.595-14.153,18.221-19.284,28.645    l-48.42-20.056l-5.763,13.912l48.344,20.024c-3.784,10.73-6.174,22.109-6.956,33.922h-8.83v15.059h8.698    c0.6,11.887,2.832,23.352,6.471,34.175l-47.732,19.771l5.763,13.912l47.611-19.721c5.044,10.635,11.506,20.469,19.15,29.253    l-5.588,5.588l10.648,10.649l5.469-5.469c8.672,7.888,18.431,14.595,29.018,19.886l-19.367,46.756l13.912,5.763l19.299-46.592    c10.942,3.933,22.568,6.413,34.648,7.212v6.818h15.059v-6.69c12.156-0.613,23.867-2.933,34.904-6.72l19.041,45.974l13.912-5.763    l-19.024-45.929c10.8-5.202,20.757-11.882,29.621-19.767l4.525,4.525l10.648-10.649l-4.525-4.525    c7.885-8.864,14.566-18.821,19.767-29.621l45.928,19.024l5.763-13.912l-45.974-19.042    C381.903,287.397,384.224,275.685,384.837,263.529z M257.004,369.945c-62.276,0-112.941-50.665-112.941-112.941    s50.665-112.941,112.941-112.941s112.941,50.665,112.941,112.941S319.28,369.945,257.004,369.945z" data-original="#000000" class="active-path" data-old_color="#FDFBFB" fill="#FFFfff"/>
	</g>
</g><g>
	<g>
		
			<rect x="325.565" y="434.544" transform="matrix(0.9239 -0.3827 0.3827 0.9239 -143.8221 161.1258)" width="15.059" height="15.059" data-original="#000000" class="active-path" data-old_color="#FDFBFB" fill="#FFFfff"/>
	</g>
</g><g>
	<g>
		
			<rect x="337.071" y="462.358" transform="matrix(0.9239 -0.3827 0.3827 0.9239 -153.589 167.6443)" width="15.059" height="15.059" data-original="#000000" class="active-path" data-old_color="#FDFBFB" fill="#FFFfff"/>
	</g>
</g><g>
	<g>
		
			<rect x="434.55" y="325.528" transform="matrix(0.3827 -0.9239 0.9239 0.3827 -34.8039 614.027)" width="15.059" height="15.059" data-original="#000000" class="active-path" data-old_color="#FDFBFB" fill="#FFFfff"/>
	</g>
</g><g>
	<g>
		
			<rect x="462.372" y="337.048" transform="matrix(0.3827 -0.9239 0.9239 0.3827 -28.2725 646.8423)" width="15.059" height="15.059" data-original="#000000" class="active-path" data-old_color="#FDFBFB" fill="#FFFfff"/>
	</g>
</g><g>
	<g>
		
			<rect x="434.543" y="171.394" transform="matrix(0.9239 -0.3827 0.3827 0.9239 -34.8202 182.7969)" width="15.059" height="15.059" data-original="#000000" class="active-path" data-old_color="#FDFBFB" fill="#FFFfff"/>
	</g>
</g><g>
	<g>
		
			<rect x="462.367" y="159.853" transform="matrix(0.9239 -0.3827 0.3827 0.9239 -28.2856 192.5662)" width="15.059" height="15.059" data-original="#000000" class="active-path" data-old_color="#FDFBFB" fill="#FFFfff"/>
	</g>
</g><g>
	<g>
		
			<rect x="325.554" y="62.405" transform="matrix(0.3827 -0.9239 0.9239 0.3827 141.0045 350.8998)" width="15.059" height="15.059" data-original="#000000" class="active-path" data-old_color="#FDFBFB" fill="#FFFfff"/>
	</g>
</g><g>
	<g>
		<rect x="337.078" y="34.58" transform="matrix(0.3827 -0.9239 0.9239 0.3827 173.826 344.3693)" width="15.059" height="15.059" data-original="#000000" class="active-path" data-old_color="#FDFBFB" fill="#FFFfff"/>
	</g>
</g></g> </svg>
