<?xml version="1.0"?>
<svg xmlns="http://www.w3.org/2000/svg" xmlns:xlink="http://www.w3.org/1999/xlink" version="1.1" id="Capa_1" x="0px" y="0px" viewBox="0 0 512 512" style="enable-background:new 0 0 512 512;" xml:space="preserve" width="512px" height="512px" class=""><g><script xmlns="" id="tinyhippos-injected" class="active-path" style="fill:#FFFEFE" data-old_color="#FBF7F7"/><g>
	<g>
		<path d="M257.83,68.217c-4.225,0-7.649,3.425-7.649,7.649s3.425,7.649,7.649,7.649c96.117,0,174.313,78.197,174.313,174.314    S353.946,432.142,257.83,432.142c-96.117,0-174.314-78.197-174.314-174.313c0-39.76,13.034-77.2,37.695-108.273    c23.933-30.156,57.573-51.811,94.724-60.975c4.102-1.012,6.607-5.157,5.595-9.259c-1.012-4.1-5.154-6.607-9.26-5.593    c-40.421,9.971-77.016,33.523-103.043,66.318c-26.829,33.805-41.01,74.534-41.01,117.783c0,104.552,85.06,189.612,189.613,189.612    c104.552,0,189.612-85.06,189.612-189.612C447.442,153.277,362.382,68.217,257.83,68.217z" data-original="#000000" class="active-path" data-old_color="#FBF7F7" fill="#FFFEFE"/>
	</g>
</g><g>
	<g>
		<path d="M437.019,74.981C388.667,26.628,324.38,0,256,0S123.333,26.628,74.981,74.981C26.629,123.334,0,187.62,0,256    s26.628,132.667,74.981,181.019C123.334,485.371,187.62,512,256,512c39.722,0,77.795-8.851,113.162-26.307    c3.788-1.87,5.344-6.457,3.474-10.245c-1.87-3.789-6.457-5.344-10.245-3.474c-33.243,16.408-69.038,24.728-106.391,24.728    c-64.294,0-124.739-25.037-170.202-70.5c-45.462-45.463-70.5-105.908-70.5-170.202s25.037-124.739,70.5-170.202    c45.463-45.462,105.908-70.5,170.202-70.5s124.739,25.037,170.202,70.5c45.462,45.463,70.5,105.908,70.5,170.202    c0,38.726-9.412,77.211-27.218,111.294c-17.239,32.997-42.333,61.999-72.57,83.87c-3.423,2.476-4.191,7.258-1.715,10.681    c2.476,3.422,7.259,4.191,10.681,1.715c32.149-23.254,58.832-54.093,77.164-89.182C501.987,338.118,512,297.183,512,256    C512,187.62,485.372,123.333,437.019,74.981z" data-original="#000000" class="active-path" data-old_color="#FBF7F7" fill="#FFFEFE"/>
	</g>
</g><g>
	<g>
		<path d="M256,198.252c-31.842,0-57.748,25.906-57.748,57.748s25.905,57.747,57.748,57.747s57.747-25.905,57.747-57.747    C313.747,224.158,287.842,198.252,256,198.252z M256,298.449c-23.406,0-42.449-19.043-42.449-42.449s19.043-42.449,42.449-42.449    s42.449,19.043,42.449,42.449S279.406,298.449,256,298.449z" data-original="#000000" class="active-path" data-old_color="#FBF7F7" fill="#FFFEFE"/>
	</g>
</g></g> </svg>
