<svg id="Layer_1" data-name="Layer 1" xmlns="http://www.w3.org/2000/svg" viewBox="0 0 220.85 57.31"><defs><style>.cls-1{fill:#f3f3f3;}</style></defs><title>Untitled-3arrow</title><path class="cls-1" d="M571.4,319.39a1.78,1.78,0,0,0-.87-2.1l-29.3-17c-8.23-4.77-16.35-10.76-25.7-13a2,2,0,0,0-2.37,2.38c.75,4.85,1.41,9.72,2.23,14.55a36.72,36.72,0,0,0-28.05-4.57c-5.33,1.31-9.58,3.84-14,7.06-10.51,7.69-16.05,10.69-27.29,1.27-8.13-6.82-16.74-11.67-27.8-9.64-7.71,1.42-13.22,6.94-20.64,9-10.76,2.94-19.58-2.06-26.9-9.69a1.88,1.88,0,0,0-3.14-1.38c-5,4.91-10.64,8.69-16.19,12.92a1.3,1.3,0,0,0-.47,1.11,1.2,1.2,0,0,0,0,1c5,12.41,15.3,21.81,28.68,24.11A38.5,38.5,0,0,0,398.3,334c8.28-2.75,13.63-9.55,22.35-10.58,17.51-2.06,27.4,20.8,45.59,17.11,5.86-1.18,10.2-5.4,14.7-9,10.6-8.46,21.41-10.42,34.07-5.84-2.8,5.2-5.29,10.56-7.78,15.92-.65,1.39.44,3.49,2.19,2.86q30.49-10.95,60.92-22.11A2.06,2.06,0,0,0,571.4,319.39Zm-28.5-13.54,23.63,13.7q-27,9.84-54,19.65c2-4.53,4-9.08,5.67-13.73a1.15,1.15,0,0,0-.37-1.34,1.53,1.53,0,0,0-.85-1.55,33.6,33.6,0,0,0-33.15,1.76c-8.75,5.61-15.21,15.42-27.22,11.55-8-2.6-14-9.32-21.24-13.38-12.35-7-19-3.34-29.86,3.55-19.18,12.16-41.85,4.19-51.64-15.52A59.35,59.35,0,0,0,369,300c6.53,8.29,16.68,14.13,27.55,12.1,6.15-1.15,10.83-5.35,16.45-7.76,12.72-5.45,21.8-.47,31.51,7.49,7.49,6.13,14.57,9.32,23.6,4,7.17-4.26,11.79-10.25,20.31-12.32,9.74-2.36,19.47.06,27.53,5.79a1.89,1.89,0,0,0,.69.3,1.28,1.28,0,0,0,2.06-.92c0-.17,0-.34,0-.51a2,2,0,0,0,0-1.29,133.22,133.22,0,0,0-1.29-14.94C526.38,294.91,534.74,301.12,542.9,305.85Z" transform="translate(-350.81 -287.26)"/></svg>