<svg id="Layer_1" data-name="Layer 1" xmlns="http://www.w3.org/2000/svg" viewBox="0 0 131.9 60.34"><defs><style>.cls-1{fill:#f3f3f3;}</style></defs><title>Untitled-3</title><path class="cls-1" d="M346,272.57l.46.48a.86.86,0,0,0,0,.48.64.64,0,0,0-.07.77c.7,1.38,1.44,2.73,2.18,4.09a1.11,1.11,0,0,0,.07.29q4.33,8.94,7.8,18.25l-7.86.33c2-.33,3.95-.63,5.94-.88a.69.69,0,0,0,.31-1.24c.54-.47.31-1.56-.53-1.37-4.08.93-8.17,1.66-12.3,2.24-1.91.22-3.81.45-5.71.72a.76.76,0,0,0,.17,1.5l1-.11a.8.8,0,0,0-.09.3c-.67.17-1.35.33-2,.51a.43.43,0,0,0-.32.44.82.82,0,0,0-.54,1.53c15.54,8,31.57,15.75,49,18.52,2.34.38,4.7.65,7.07.83,10.18,1.34,21.19,1,29-5.61a.65.65,0,0,0,.07.21q3,6.13,6.08,12.26l-1.75,1.56a.63.63,0,0,0,.74,1c.57-.4,1.12-.81,1.68-1.21.42.83.83,1.66,1.24,2.49s1.68.33,1.31-.52l-1.26-2.9.43-.3a.59.59,0,0,0,.75,0,182,182,0,0,0,19.11-16.72q6.54-5.83,13-11.75l4.15,1.07c1,.26,1.16-1.27.22-1.54l-2.91-.86,1-.87c.43-.4.37-1.26-.33-1.33a139.43,139.43,0,0,1-20.06-3.67q-14.62-4.59-29.12-9.61a.77.77,0,0,0-.67.07l-1.29-.46a.58.58,0,0,0-.22,0,.75.75,0,0,0-1.3.35c-.24-.35-.47-.71-.72-1.06-.43-.6-1.46-.06-1.15.63,2.53,5.52,4.76,11.18,7.21,16.74A37,37,0,0,1,395.21,301c-18-4.88-33.8-17.63-48.13-29.69C346.22,270.53,345.29,271.81,346,272.57Zm31.92,23.2a80,80,0,0,1-16.18-10.53A137.42,137.42,0,0,0,377.93,295.77Zm37.94.7a.71.71,0,0,0,.45.18l.11.27a.73.73,0,0,0,1,.39c-.32.18-.65.35-1,.52C416.22,297.38,416.05,296.92,415.87,296.47Zm44.85.47-3.06-.9c1.18.17,2.36.32,3.54.46Zm-105.57-7.58q1.62,2.44,3.35,4.85c.61.86,1.88-.09,1.32-1L358.36,291a.79.79,0,0,0,.53-1.08,70.15,70.15,0,0,0-6.67-11c9,8.81,19.14,16.73,31.18,20.89a57.14,57.14,0,0,0,9.56,2.41A55.29,55.29,0,0,0,418.64,304c1-.17.84-1.74-.19-1.58a55,55,0,0,1-14.12.26,30.43,30.43,0,0,0,11.84-3.37c.08.2.17.4.26.6a.37.37,0,0,0,.68-.27c-.09-.24-.19-.47-.28-.71a25.47,25.47,0,0,0,2.88-1.89.47.47,0,0,0-.55-.77c-.5.32-1,.6-1.52.89a.57.57,0,0,0,.2-.59c0-.06,0-.12,0-.18h0a50.73,50.73,0,0,0-4.92-12.75c5.23,2.17,10.52,4.11,15.86,5.89-.32.35-.35.94.22,1.11q12.74,3.84,25.5,7.63a.84.84,0,0,0,1.06-.92l3.71,1-.62.57a.64.64,0,0,0-1-.21l-.37.33a.63.63,0,0,0-.78.09,184.53,184.53,0,0,1-25,20.48c-.43.29.05.92.48.65q3-2,6-4l-11,9.79q-3-7-6.05-13.91l.06-.12a.42.42,0,0,0-.39-.63L420,310c-.31-.76-1.5-.29-1.18.46l.79,1.86c-.14.2-.27.4-.42.58a.81.81,0,0,0-.18.1,24.33,24.33,0,0,1-10.12,5.19,64.74,64.74,0,0,1-10.77.86c-1.82,0-3.64,0-5.46-.1a113.83,113.83,0,0,1-14.6-2.74c-14.65-3.59-28.44-10-42-16.36l2.46-.58,19.18-.78a.8.8,0,0,0,.65-1.08C357.31,294.69,356.25,292,355.15,289.36Z" transform="translate(-333.99 -271.04)"/></svg>