<?xml version="1.0" encoding="iso-8859-1"?>
<!-- Generator: Adobe Illustrator 19.0.0, SVG Export Plug-In . SVG Version: 6.00 Build 0)  -->
<svg version="1.1" id="Layer_1" xmlns="http://www.w3.org/2000/svg" xmlns:xlink="http://www.w3.org/1999/xlink" x="0px" y="0px"
	 viewBox="0 0 511.998 511.998" style="enable-background:new 0 0 511.998 511.998;" xml:space="preserve">
<path style="fill:#CCC2B8;" d="M255.999,272.136l34.156-59.156h-68.311L255.999,272.136z M423.109,207.181
	c7.702,42.826-7.283,85.523-38.663,116.344c-14.028,13.781-31.326,25.184-51.346,33.166c-20.009,7.982-42.224,12.425-65.622,12.425
	h-11.478h-11.478c-23.398,0-45.612-4.443-65.622-12.425c-20.02-7.982-37.318-19.385-51.346-33.166
	c-31.38-30.821-46.366-73.518-38.663-116.344l4.97-22.548c6.476-29.347,13.834-58.532,22.064-87.524
	c8.24-28.981,17.352-57.779,27.335-86.352l54.972,85.771h115.634l54.95-85.706l0.118,0.333
	c19.837,56.876,36.232,114.644,49.109,173.058L423.109,207.181z"/>
<path style="fill:#FB7B76;" d="M384.446,323.525c0.484,2.937,0.742,5.917,0.742,8.94c0,46.032-57.844,83.35-129.189,83.35v-46.699
	h11.478c23.398,0,45.612-4.443,65.622-12.425C353.119,348.709,370.418,337.306,384.446,323.525z"/>
<polygon style="fill:#666666;" points="290.155,212.979 255.999,272.136 221.844,212.979 "/>
<path style="fill:#F0C419;" d="M255.999,501.242c-23.592,0-42.719-19.127-42.719-42.719c0-23.592,19.127-42.708,42.719-42.708
	s42.719,19.116,42.719,42.708C298.718,482.115,279.591,501.242,255.999,501.242z"/>
<path style="fill:#FB7B76;" d="M255.999,369.116v46.699c-71.345,0-129.189-37.318-129.189-83.35c0-3.023,0.258-6.003,0.742-8.94
	c14.028,13.781,31.326,25.184,51.346,33.166c20.009,7.982,42.224,12.425,65.622,12.425L255.999,369.116L255.999,369.116z"/>
<path d="M355.211,371.743c-0.616,0.581-1.247,1.154-1.889,1.722c-4.448,3.938-4.862,10.737-0.923,15.186
	c2.127,2.401,5.086,3.626,8.059,3.626c2.534,0,5.08-0.891,7.127-2.703c0.801-0.71,1.59-1.429,2.361-2.153
	c4.329-4.069,4.541-10.877,0.471-15.207C366.348,367.885,359.542,367.675,355.211,371.743z"/>
<path d="M116.26,327.367c-0.136,1.708-0.208,3.411-0.208,5.098c0,26.043,15.188,50.184,42.766,67.977
	c16.372,10.563,36.045,18.148,57.448,22.34c-8.537,9.477-13.744,22.011-13.744,35.74c0,29.487,23.99,53.476,53.476,53.476
	c29.487,0,53.476-23.99,53.476-53.476c0-13.721-5.201-26.249-13.731-35.725c16.807-3.291,32.562-8.693,46.663-16.087
	c5.263-2.758,7.29-9.261,4.532-14.523c-2.757-5.261-9.258-7.292-14.523-4.532c-18.638,9.771-41.625,15.716-65.66,17.091v-24.872
	h0.721c24.248,0,47.668-4.438,69.605-13.19c12.411-4.949,23.937-11.159,34.489-18.542c-0.652,1.765-1.411,3.517-2.284,5.25
	c-2.67,5.307-0.534,11.774,4.773,14.445c1.551,0.781,3.203,1.151,4.828,1.151c3.935,0,7.727-2.169,9.617-5.923
	c4.936-9.806,7.438-20.101,7.438-30.599c0-1.687-0.072-3.391-0.208-5.099c14.88-15.679,26.209-34.267,32.889-54.072
	c7.382-21.888,9.135-45.407,5.069-68.017c-0.024-0.138-0.053-0.275-0.082-0.413l-5.067-22.967
	c-12.914-58.58-29.551-117.218-49.48-174.353l-0.118-0.333c-1.376-3.865-4.832-6.612-8.909-7.077
	c-4.079-0.468-8.064,1.426-10.28,4.881l-51.777,80.755h-103.87L152.316,4.952c-2.219-3.464-6.215-5.358-10.311-4.879
	c-4.088,0.48-7.544,3.25-8.901,7.136c-9.982,28.57-19.244,57.828-27.529,86.963c-8.254,29.078-15.73,58.735-22.22,88.146
	l-4.97,22.548c-0.03,0.137-0.058,0.273-0.082,0.411c-4.066,22.61-2.313,46.13,5.069,68.017
	C90.053,293.099,101.38,311.687,116.26,327.367z M287.96,458.523c0,13.85-8.858,25.667-21.203,30.093v-30.093
	c0-5.94-4.817-10.758-10.758-10.758c-5.94,0-10.758,4.817-10.758,10.758v30.093c-12.345-4.427-21.203-16.243-21.203-30.093
	c0-17.617,14.338-31.95,31.961-31.95S287.96,440.905,287.96,458.523z M245.241,404.743c-28.37-1.579-54.602-9.376-74.759-22.381
	c-15.123-9.757-25.4-21.56-30.062-34.224c10.553,7.385,22.081,13.597,34.493,18.546c21.94,8.752,45.36,13.19,69.607,13.19h0.721
	V404.743z M99.442,209.289l4.923-22.338c6.399-28.995,13.77-58.234,21.907-86.899c6.145-21.614,12.837-43.296,19.967-64.709
	l42.935,66.991c1.978,3.086,5.392,4.953,9.057,4.953h115.634c3.665,0,7.077-1.865,9.056-4.952l42.91-66.927
	c16.527,49.696,30.532,100.434,41.706,151.124l5.021,22.758c6.89,38.704-6.095,77.535-35.649,106.562c-0.001,0-0.001,0-0.001,0
	c-13.406,13.171-29.486,23.548-47.794,30.849c-19.393,7.736-40.13,11.659-61.636,11.659h-22.957
	c-21.506,0-42.243-3.922-61.638-11.659c-18.306-7.299-34.386-17.678-47.793-30.849C105.537,286.823,92.55,247.992,99.442,209.289z"
	/>
<path d="M240.683,267.125L197.812,286c-5.438,2.395-7.906,8.743-5.511,14.181c2.395,5.439,8.743,7.906,14.181,5.511l49.518-21.801
	l49.517,21.8c1.41,0.621,2.881,0.914,4.329,0.914c4.135,0,8.078-2.398,9.851-6.426c2.395-5.438-0.073-11.786-5.511-14.181
	l-42.871-18.875l28.157-48.767c1.921-3.328,1.921-7.429,0-10.758s-5.474-5.379-9.316-5.379h-68.311c-3.843,0-7.395,2.05-9.316,5.379
	c-1.921,3.329-1.921,7.429,0,10.758L240.683,267.125z M271.52,223.737l-15.522,26.884l-15.522-26.884H271.52z"/>
<path d="M164.516,199.145c19.77,0,35.855-16.085,35.855-35.855c0-5.941-4.817-10.758-10.758-10.758s-10.758,4.816-10.758,10.758
	c0,7.907-6.432,14.34-14.34,14.34c-7.908,0-14.34-6.433-14.34-14.34c0-5.941-4.817-10.758-10.758-10.758
	c-5.94,0-10.758,4.816-10.758,10.758C128.661,183.06,144.746,199.145,164.516,199.145z"/>
<path d="M347.482,199.145c19.77,0,35.855-16.085,35.855-35.855c0-5.941-4.817-10.758-10.758-10.758
	c-5.94,0-10.758,4.816-10.758,10.758c0,7.907-6.432,14.34-14.34,14.34c-7.908,0-14.34-6.433-14.34-14.34
	c0-5.941-4.817-10.758-10.758-10.758c-5.94,0-10.758,4.816-10.758,10.758C311.627,183.06,327.712,199.145,347.482,199.145z"/>
<g>
</g>
<g>
</g>
<g>
</g>
<g>
</g>
<g>
</g>
<g>
</g>
<g>
</g>
<g>
</g>
<g>
</g>
<g>
</g>
<g>
</g>
<g>
</g>
<g>
</g>
<g>
</g>
<g>
</g>
</svg>
