<svg id="Layer_1" data-name="Layer 1" xmlns="http://www.w3.org/2000/svg" viewBox="0 0 136.32 150.02"><defs><style>.cls-1{fill:#fffffd;}</style></defs><title>Untitled-1</title><path class="cls-1" d="M464.3,323.77a2.79,2.79,0,0,1-1.51-3.58,2.89,2.89,0,0,1,3.37-2,2.71,2.71,0,0,1,1.65,3.63A2.79,2.79,0,0,1,464.3,323.77Z" transform="translate(-331.98 -224.33)"/><path class="cls-1" d="M451.33,325.49a2.58,2.58,0,0,1-1.35-3.3,2.34,2.34,0,0,1,1.44-1.18,2.74,2.74,0,0,1,2,.05,2.78,2.78,0,0,1,1.47,1.41,2.33,2.33,0,0,1-.07,1.93A2.51,2.51,0,0,1,451.33,325.49Z" transform="translate(-331.98 -224.33)"/><path class="cls-1" d="M455.3,333.37a2.1,2.1,0,0,1-.67-2.86,2.17,2.17,0,0,1,1.29-1,2,2,0,0,1,1.55.12,2,2,0,0,1,1,1.26,2.14,2.14,0,0,1-.28,1.63A2.1,2.1,0,0,1,455.3,333.37Z" transform="translate(-331.98 -224.33)"/><path class="cls-1" d="M446.51,333a1.52,1.52,0,0,1-.44-2.11,1.58,1.58,0,0,1,2.15-.33,1.53,1.53,0,0,1,.52,2.16A1.61,1.61,0,0,1,446.51,333Z" transform="translate(-331.98 -224.33)"/><path class="cls-1" d="M466,335a1.36,1.36,0,0,1-.42-1.81,1.29,1.29,0,0,1,1.66-.73,1.33,1.33,0,0,1,.43,1.82A1.26,1.26,0,0,1,466,335Z" transform="translate(-331.98 -224.33)"/><path class="cls-1" d="M437.71,356.83a2.5,2.5,0,0,1-.32-2,3.1,3.1,0,0,1,1.17-1.82,2.83,2.83,0,0,1,3.88.4,2.76,2.76,0,0,1-.8,3.9,3,3,0,0,1-2.16.63A2.57,2.57,0,0,1,437.71,356.83Z" transform="translate(-331.98 -224.33)"/><path class="cls-1" d="M436.36,345.65a4.15,4.15,0,0,1-.89-2.83,3.7,3.7,0,0,1,1.12-2.55,4.05,4.05,0,0,1,5.39.42,3.72,3.72,0,0,1-.11,5.52,3.53,3.53,0,0,1-2.86,1A4,4,0,0,1,436.36,345.65Z" transform="translate(-331.98 -224.33)"/><path class="cls-1" d="M426.17,350.59a2.75,2.75,0,0,1-.22-2,2.24,2.24,0,0,1,.4-.82,2.38,2.38,0,0,1,.68-.66,2.66,2.66,0,0,1,2.6,4.62,2.4,2.4,0,0,1-.95.33,2.54,2.54,0,0,1-1-.16A2.69,2.69,0,0,1,426.17,350.59Z" transform="translate(-331.98 -224.33)"/><path class="cls-1" d="M447.42,350.7a1.55,1.55,0,0,1,.2-2.17,1.64,1.64,0,0,1,2.21-.08,1.5,1.5,0,0,1-.17,2.2A1.59,1.59,0,0,1,447.42,350.7Z" transform="translate(-331.98 -224.33)"/><path class="cls-1" d="M424.79,359.34a2,2,0,0,1,0-1.56,2.22,2.22,0,0,1,1.09-1.19,2.06,2.06,0,1,1,1.69,3.76,2.22,2.22,0,0,1-1.65.12A2.06,2.06,0,0,1,424.79,359.34Z" transform="translate(-331.98 -224.33)"/><path class="cls-1" d="M446.21,338.45a2.42,2.42,0,0,1-.42-3.23,2.35,2.35,0,0,1,3.7,2.91A2.23,2.23,0,0,1,446.21,338.45Z" transform="translate(-331.98 -224.33)"/><path class="cls-1" d="M417.87,353.89a1.62,1.62,0,0,1,.85-2,1.57,1.57,0,0,1,1.94,1,1.53,1.53,0,0,1-.86,2A1.49,1.49,0,0,1,417.87,353.89Z" transform="translate(-331.98 -224.33)"/><path class="cls-1" d="M453.94,345a1.42,1.42,0,0,1-.05-2,1.39,1.39,0,0,1,1.93-.37,1.47,1.47,0,0,1,.12,2A1.4,1.4,0,0,1,453.94,345Z" transform="translate(-331.98 -224.33)"/><path class="cls-1" d="M432.45,366.83a1.31,1.31,0,0,1,.75-1.67,1.36,1.36,0,0,1,1.8.43,1.27,1.27,0,0,1-.74,1.67A1.32,1.32,0,0,1,432.45,366.83Z" transform="translate(-331.98 -224.33)"/><path class="cls-1" d="M396.74,367.88a2.75,2.75,0,0,1,2.93-2.51,2.66,2.66,0,1,1,0,5.3A2.83,2.83,0,0,1,396.74,367.88Z" transform="translate(-331.98 -224.33)"/><path class="cls-1" d="M402.22,358.08a3.77,3.77,0,1,1,4.14,3.77A3.89,3.89,0,0,1,402.22,358.08Z" transform="translate(-331.98 -224.33)"/><path class="cls-1" d="M391.08,356.08a2.38,2.38,0,0,1,4.29-1.33,2.81,2.81,0,0,1-.31,3.73,2.18,2.18,0,0,1-1.87.6A2.58,2.58,0,0,1,391.08,356.08Z" transform="translate(-331.98 -224.33)"/><path class="cls-1" d="M408.2,368.73a1.63,1.63,0,0,1,1.43-1.71,1.48,1.48,0,1,1,.4,2.92A1.52,1.52,0,0,1,408.2,368.73Z" transform="translate(-331.98 -224.33)"/><path class="cls-1" d="M384.82,362.33a2.15,2.15,0,0,1,4.2.87,2.14,2.14,0,1,1-4.2-.87Z" transform="translate(-331.98 -224.33)"/><path class="cls-1" d="M414.42,358a2.31,2.31,0,0,1,1.57-2.83,2.25,2.25,0,0,1,1.7.26,2.34,2.34,0,0,1,1.13,1.36,2.43,2.43,0,0,1-.13,1.82,2.19,2.19,0,0,1-1.42,1.08A2.31,2.31,0,0,1,414.42,358Z" transform="translate(-331.98 -224.33)"/><path class="cls-1" d="M382.41,353.89a1.63,1.63,0,0,1,1.89-1.11,1.51,1.51,0,0,1,1,1.92,1.59,1.59,0,0,1-1.9,1.18A1.51,1.51,0,0,1,382.41,353.89Z" transform="translate(-331.98 -224.33)"/><path class="cls-1" d="M416.81,367.9a1.43,1.43,0,0,1,1.11-1.65,1.47,1.47,0,0,1,1.8.9,1.51,1.51,0,0,1-2.91.75Z" transform="translate(-331.98 -224.33)"/><path class="cls-1" d="M386.61,373a1.34,1.34,0,0,1,1.59-.94,1.2,1.2,0,1,1-.38,2.32A1.29,1.29,0,0,1,386.61,373Z" transform="translate(-331.98 -224.33)"/><path class="cls-1" d="M357.06,352.83a2.93,2.93,0,0,1,4.68,3.49,2.69,2.69,0,0,1-3.91.39A2.73,2.73,0,0,1,357.06,352.83Z" transform="translate(-331.98 -224.33)"/><path class="cls-1" d="M367.26,348.15a3.75,3.75,0,1,1,6.5,3.74,3.76,3.76,0,1,1-6.5-3.74Z" transform="translate(-331.98 -224.33)"/><path class="cls-1" d="M359.42,340a2.69,2.69,0,0,1,3.6-.3,2.64,2.64,0,0,1,0,3.6,2.49,2.49,0,0,1-3.61.3A2.45,2.45,0,0,1,359.42,340Z" transform="translate(-331.98 -224.33)"/><path class="cls-1" d="M365.88,360.21a1.6,1.6,0,0,1,2.13-.49,1.53,1.53,0,0,1,.79,2,1.61,1.61,0,0,1-2.18.58A1.56,1.56,0,0,1,365.88,360.21Z" transform="translate(-331.98 -224.33)"/><path class="cls-1" d="M350.71,341.31a2.14,2.14,0,0,1,2.88,3.17,2.14,2.14,0,0,1-2.88-3.17Z" transform="translate(-331.98 -224.33)"/><path class="cls-1" d="M377.17,355.26a2.29,2.29,0,1,1,4.29,1.57,2.29,2.29,0,1,1-4.29-1.57Z" transform="translate(-331.98 -224.33)"/><path class="cls-1" d="M353.77,333a1.56,1.56,0,0,1,2.17.2,1.62,1.62,0,0,1-.39,2.18,1.48,1.48,0,0,1-2.17-.21A1.53,1.53,0,0,1,353.77,333Z" transform="translate(-331.98 -224.33)"/><path class="cls-1" d="M373.31,364.65a1.47,1.47,0,0,1,1.89-.71,1.42,1.42,0,0,1,.93,1.75,1.43,1.43,0,0,1-1.89.72A1.38,1.38,0,0,1,373.31,364.65Z" transform="translate(-331.98 -224.33)"/><path class="cls-1" d="M345.93,350.93a1.28,1.28,0,0,1,1.8.21,1.32,1.32,0,0,1,.17,1.81,1.3,1.3,0,0,1-1.85-.16A1.34,1.34,0,0,1,345.93,350.93Z" transform="translate(-331.98 -224.33)"/><path class="cls-1" d="M333.88,317.29a2.77,2.77,0,0,1,3.29,2,2.74,2.74,0,0,1-1.52,3.54,2.85,2.85,0,0,1-3.53-1.94A2.82,2.82,0,0,1,333.88,317.29Z" transform="translate(-331.98 -224.33)"/><path class="cls-1" d="M344.91,319.48a4.21,4.21,0,0,1,3,0,3.73,3.73,0,0,1,2,1.87,3.92,3.92,0,0,1-2,5,3.82,3.82,0,0,1-5.26-1.78,3.54,3.54,0,0,1,0-3.05A3.88,3.88,0,0,1,344.91,319.48Z" transform="translate(-331.98 -224.33)"/><path class="cls-1" d="M336.66,328.45a1.66,1.66,0,0,1,1.44,3,1.66,1.66,0,0,1-1.44-3Z" transform="translate(-331.98 -224.33)"/><path class="cls-1" d="M348.73,331.05a2.28,2.28,0,0,1,2.54,3.79,2.29,2.29,0,1,1-2.54-3.79Z" transform="translate(-331.98 -224.33)"/><path class="cls-1" d="M340.09,336.39a1.41,1.41,0,0,1,1.9.56,1.49,1.49,0,0,1-.32,2,1.34,1.34,0,0,1-1.9-.55A1.44,1.44,0,0,1,340.09,336.39Z" transform="translate(-331.98 -224.33)"/><path class="cls-1" d="M336,274.91a2.79,2.79,0,0,1,1.51,3.58,2.88,2.88,0,0,1-3.37,2,2.71,2.71,0,0,1-1.65-3.63A2.79,2.79,0,0,1,336,274.91Z" transform="translate(-331.98 -224.33)"/><path class="cls-1" d="M349,273.19a2.58,2.58,0,0,1,1.35,3.3,2.3,2.3,0,0,1-1.44,1.18,2.74,2.74,0,0,1-2-.05,2.84,2.84,0,0,1-1.48-1.41,2.37,2.37,0,0,1,.08-1.93A2.5,2.5,0,0,1,349,273.19Z" transform="translate(-331.98 -224.33)"/><path class="cls-1" d="M345,265.31a2.1,2.1,0,0,1,.68,2.86,2.22,2.22,0,0,1-1.29,1,2,2,0,0,1-1.55-.13,2,2,0,0,1-1-1.26,2.14,2.14,0,0,1,.28-1.63A2.09,2.09,0,0,1,345,265.31Z" transform="translate(-331.98 -224.33)"/><path class="cls-1" d="M353.77,265.66a1.51,1.51,0,0,1,.44,2.11,1.59,1.59,0,0,1-2.15.32,1.53,1.53,0,0,1-.52-2.16A1.6,1.6,0,0,1,353.77,265.66Z" transform="translate(-331.98 -224.33)"/><path class="cls-1" d="M334.28,263.69a1.36,1.36,0,0,1,.42,1.81,1.29,1.29,0,0,1-1.66.73,1.33,1.33,0,0,1-.43-1.81A1.25,1.25,0,0,1,334.28,263.69Z" transform="translate(-331.98 -224.33)"/><path class="cls-1" d="M362.57,241.85a2.5,2.5,0,0,1,.32,2,3.1,3.1,0,0,1-1.17,1.82,2.83,2.83,0,0,1-3.88-.4,2.76,2.76,0,0,1,.8-3.9,3,3,0,0,1,2.16-.62A2.53,2.53,0,0,1,362.57,241.85Z" transform="translate(-331.98 -224.33)"/><path class="cls-1" d="M363.92,253a4.15,4.15,0,0,1,.89,2.83,3.75,3.75,0,0,1-1.12,2.55,4.05,4.05,0,0,1-5.39-.42,3.71,3.71,0,0,1,.11-5.51,3.51,3.51,0,0,1,2.86-1A4,4,0,0,1,363.92,253Z" transform="translate(-331.98 -224.33)"/><path class="cls-1" d="M374.11,248.09a2.75,2.75,0,0,1,.22,2,2.11,2.11,0,0,1-.41.82,2.22,2.22,0,0,1-.67.66,2.65,2.65,0,0,1-2.6-4.61,2.27,2.27,0,0,1,1-.34,2.54,2.54,0,0,1,1,.16A2.69,2.69,0,0,1,374.11,248.09Z" transform="translate(-331.98 -224.33)"/><path class="cls-1" d="M352.86,248a1.56,1.56,0,0,1-.2,2.17,1.64,1.64,0,0,1-2.21.08,1.5,1.5,0,0,1,.17-2.2A1.59,1.59,0,0,1,352.86,248Z" transform="translate(-331.98 -224.33)"/><path class="cls-1" d="M375.49,239.34a2,2,0,0,1,0,1.56,2.22,2.22,0,0,1-1.09,1.19,2.06,2.06,0,1,1-1.69-3.76,2.2,2.2,0,0,1,1.64-.12A2,2,0,0,1,375.49,239.34Z" transform="translate(-331.98 -224.33)"/><path class="cls-1" d="M354.07,260.23a2.43,2.43,0,0,1,.42,3.23,2.35,2.35,0,0,1-3.7-2.91A2.23,2.23,0,0,1,354.07,260.23Z" transform="translate(-331.98 -224.33)"/><path class="cls-1" d="M382.41,244.79a1.62,1.62,0,0,1-.85,2,1.57,1.57,0,0,1-1.94-1,1.53,1.53,0,0,1,.86-2A1.49,1.49,0,0,1,382.41,244.79Z" transform="translate(-331.98 -224.33)"/><path class="cls-1" d="M346.34,253.66a1.43,1.43,0,0,1,.05,2,1.39,1.39,0,0,1-1.93.37,1.47,1.47,0,0,1-.12-2A1.4,1.4,0,0,1,346.34,253.66Z" transform="translate(-331.98 -224.33)"/><path class="cls-1" d="M367.83,231.85a1.31,1.31,0,0,1-.75,1.67,1.35,1.35,0,0,1-1.8-.43,1.27,1.27,0,0,1,.74-1.67A1.33,1.33,0,0,1,367.83,231.85Z" transform="translate(-331.98 -224.33)"/><path class="cls-1" d="M403.54,230.8a2.75,2.75,0,0,1-2.93,2.51,2.66,2.66,0,1,1,0-5.3A2.83,2.83,0,0,1,403.54,230.8Z" transform="translate(-331.98 -224.33)"/><path class="cls-1" d="M398.06,240.6a3.77,3.77,0,1,1-4.14-3.76A3.86,3.86,0,0,1,398.06,240.6Z" transform="translate(-331.98 -224.33)"/><path class="cls-1" d="M409.2,242.6a2.38,2.38,0,0,1-4.29,1.33,2.81,2.81,0,0,1,.31-3.73,2.21,2.21,0,0,1,1.87-.6A2.58,2.58,0,0,1,409.2,242.6Z" transform="translate(-331.98 -224.33)"/><path class="cls-1" d="M392.08,230a1.63,1.63,0,0,1-1.43,1.7,1.48,1.48,0,1,1-.4-2.92A1.52,1.52,0,0,1,392.08,230Z" transform="translate(-331.98 -224.33)"/><path class="cls-1" d="M415.46,236.35a2.15,2.15,0,0,1-4.2-.87,2.14,2.14,0,1,1,4.2.87Z" transform="translate(-331.98 -224.33)"/><path class="cls-1" d="M385.86,240.64a2.22,2.22,0,0,1-3.28,2.57,2.36,2.36,0,0,1-1.12-1.36,2.43,2.43,0,0,1,.13-1.82A2.19,2.19,0,0,1,383,239,2.31,2.31,0,0,1,385.86,240.64Z" transform="translate(-331.98 -224.33)"/><path class="cls-1" d="M417.87,244.79A1.63,1.63,0,0,1,416,245.9a1.51,1.51,0,0,1-1-1.92,1.59,1.59,0,0,1,1.9-1.18A1.51,1.51,0,0,1,417.87,244.79Z" transform="translate(-331.98 -224.33)"/><path class="cls-1" d="M383.47,230.78a1.43,1.43,0,0,1-1.11,1.65,1.47,1.47,0,0,1-1.8-.9,1.51,1.51,0,0,1,2.91-.75Z" transform="translate(-331.98 -224.33)"/><path class="cls-1" d="M413.67,225.73a1.34,1.34,0,0,1-1.59.94,1.2,1.2,0,1,1,.38-2.32A1.29,1.29,0,0,1,413.67,225.73Z" transform="translate(-331.98 -224.33)"/><path class="cls-1" d="M443.22,245.85a2.93,2.93,0,0,1-4.68-3.49,2.69,2.69,0,0,1,3.91-.39A2.73,2.73,0,0,1,443.22,245.85Z" transform="translate(-331.98 -224.33)"/><path class="cls-1" d="M433,250.53a3.75,3.75,0,1,1-6.5-3.74,3.76,3.76,0,1,1,6.5,3.74Z" transform="translate(-331.98 -224.33)"/><path class="cls-1" d="M440.86,258.72a2.69,2.69,0,0,1-3.6.3,2.64,2.64,0,0,1,0-3.6,2.49,2.49,0,0,1,3.61-.3A2.45,2.45,0,0,1,440.86,258.72Z" transform="translate(-331.98 -224.33)"/><path class="cls-1" d="M434.4,238.47a1.6,1.6,0,0,1-2.13.49,1.53,1.53,0,0,1-.79-2,1.61,1.61,0,0,1,2.18-.58A1.56,1.56,0,0,1,434.4,238.47Z" transform="translate(-331.98 -224.33)"/><path class="cls-1" d="M449.57,257.37a2.14,2.14,0,0,1-2.88-3.17,2.14,2.14,0,0,1,2.88,3.17Z" transform="translate(-331.98 -224.33)"/><path class="cls-1" d="M423.11,243.42a2.29,2.29,0,1,1-4.29-1.57,2.29,2.29,0,1,1,4.29,1.57Z" transform="translate(-331.98 -224.33)"/><path class="cls-1" d="M446.51,265.66a1.58,1.58,0,0,1-2.18-.21,1.63,1.63,0,0,1,.4-2.18,1.48,1.48,0,0,1,2.17.21A1.54,1.54,0,0,1,446.51,265.66Z" transform="translate(-331.98 -224.33)"/><path class="cls-1" d="M427,234a1.47,1.47,0,0,1-1.89.71,1.41,1.41,0,0,1-.93-1.75,1.43,1.43,0,0,1,1.89-.72A1.39,1.39,0,0,1,427,234Z" transform="translate(-331.98 -224.33)"/><path class="cls-1" d="M454.35,247.75a1.28,1.28,0,0,1-1.8-.21,1.2,1.2,0,1,1,1.68-1.65A1.34,1.34,0,0,1,454.35,247.75Z" transform="translate(-331.98 -224.33)"/><path class="cls-1" d="M466.4,281.39a2.95,2.95,0,0,1-1.77-5.56,2.85,2.85,0,0,1,3.53,1.94A2.82,2.82,0,0,1,466.4,281.39Z" transform="translate(-331.98 -224.33)"/><path class="cls-1" d="M455.37,279.2a4.21,4.21,0,0,1-3,0,3.73,3.73,0,0,1-2-1.87,3.92,3.92,0,0,1,2-5,3.83,3.83,0,0,1,5.27,1.78,3.54,3.54,0,0,1,0,3.05A3.91,3.91,0,0,1,455.37,279.2Z" transform="translate(-331.98 -224.33)"/><path class="cls-1" d="M463.62,270.23a1.66,1.66,0,0,1-1.44-3,1.66,1.66,0,0,1,1.44,3Z" transform="translate(-331.98 -224.33)"/><path class="cls-1" d="M451.55,267.63a2.28,2.28,0,0,1-2.54-3.79,2.29,2.29,0,1,1,2.54,3.79Z" transform="translate(-331.98 -224.33)"/><path class="cls-1" d="M460.18,262.29a1.4,1.4,0,0,1-1.89-.56,1.49,1.49,0,0,1,.32-2,1.34,1.34,0,0,1,1.9.55A1.43,1.43,0,0,1,460.18,262.29Z" transform="translate(-331.98 -224.33)"/></svg>