<svg id="Capa_1" data-name="Capa 1" xmlns="http://www.w3.org/2000/svg" viewBox="0 0 484.66 440.61"><defs><style>.cls-1{fill:#db428f;}.cls-2{fill:#ed55a9;}</style></defs><title>heartshearts</title><polygon class="cls-1" points="264.36 396.54 440.6 220.3 484.66 155.39 440.6 88.12 396.54 44.06 352.48 0 264.36 88.12 242.58 109.9 220.3 88.12 176.24 44.06 112.4 0 88.12 44.06 44.06 88.12 0 132.18 44.06 220.3 220.3 396.54 240.78 425.64 264.36 396.54"/><polygon class="cls-2" points="440.6 151.96 440.6 220.3 484.66 220.3 484.66 176.24 484.66 132.18 484.66 88.12 440.6 88.12 440.6 132.18 440.6 151.96"/><rect class="cls-2" x="396.54" y="220.3" width="44.06" height="44.06"/><rect class="cls-2" x="396.54" y="44.06" width="44.06" height="44.06"/><rect class="cls-2" x="352.48" y="264.36" width="44.06" height="44.06"/><polygon class="cls-2" points="396.54 44.06 396.54 0 352.48 0 308.42 0 308.42 44.06 352.48 44.06 396.54 44.06"/><rect class="cls-2" x="308.42" y="308.42" width="44.06" height="44.06"/><rect class="cls-2" x="264.36" y="352.48" width="44.06" height="44.06"/><rect class="cls-2" x="264.36" y="44.06" width="44.06" height="44.06"/><rect class="cls-2" x="220.3" y="396.54" width="44.06" height="44.06"/><rect class="cls-2" x="220.3" y="88.12" width="44.06" height="44.06"/><rect class="cls-2" x="176.24" y="352.48" width="44.06" height="44.06"/><rect class="cls-2" x="176.24" y="44.06" width="44.06" height="44.06"/><rect class="cls-2" x="132.18" y="308.42" width="44.06" height="44.06"/><polygon class="cls-2" points="112.4 0 88.12 0 88.12 44.06 176.24 44.06 176.24 0 132.18 0 112.4 0"/><rect class="cls-2" x="88.12" y="264.36" width="44.06" height="44.06"/><rect class="cls-2" x="44.06" y="220.3" width="44.06" height="44.06"/><rect class="cls-2" x="44.06" y="44.06" width="44.06" height="44.06"/><polygon class="cls-2" points="44.06 132.18 44.06 88.12 0 88.12 0 132.18 0 176.24 0 220.3 44.06 220.3 44.06 176.24 44.06 132.18"/></svg>