<svg id="Layer_1" data-name="Layer 1" xmlns="http://www.w3.org/2000/svg" viewBox="0 0 150.02 150.02"><defs><style>.cls-1{fill:#fefffe;}</style></defs><title>Untitled-2</title><path class="cls-1" d="M475.39,287.09a9,9,0,0,0-6.55-5.1,10.58,10.58,0,0,0-8.45,1.84c-.31-1.29-.6-2.58-1-3.84a39,39,0,0,0-1.33-3.76,7.37,7.37,0,0,0,3,1.8c2.63.83,6.26.71,8.46-1.54a.39.39,0,0,0,.11-.26.4.4,0,0,0,.1-.37,7.19,7.19,0,0,0-2.9-3.62,9.62,9.62,0,0,0-4.58-1.48c-1.29-.12-4.57.13-6.17,1.21-.5-.94-1-1.88-1.56-2.77s-1.1-1.81-1.72-2.67a12,12,0,0,0,4.7.9,14.63,14.63,0,0,0,5.22-1c3.17-1.26,6.77-3.8,6.57-7.53a1,1,0,0,0-.76-1,16.35,16.35,0,0,0-9.49,1c-3.29,1.29-6.19,3.4-7.54,5.73a55.63,55.63,0,0,0-6-6.66,9.21,9.21,0,0,0,4.84,0,7.81,7.81,0,0,0,4.51-3.07.75.75,0,0,0,.07-.23v0a.31.31,0,0,0,0-.22s0-.09,0-.12a7.89,7.89,0,0,0-6.39-3.49,9.22,9.22,0,0,0-7.16,3.5,65.92,65.92,0,0,0-6.77-4.58,13.81,13.81,0,0,0,6.52-2.26,16.86,16.86,0,0,0,5.48-5.27.69.69,0,0,0,.25-.5h0a.91.91,0,0,0,0-.17v0a.52.52,0,0,0-.29-.36,7.28,7.28,0,0,0-2-.62,8.92,8.92,0,0,0-2.13,0,9.62,9.62,0,0,0-4.11,1.39,10.92,10.92,0,0,0-5,7.14,61.47,61.47,0,0,0-8.29-3.84,14.8,14.8,0,0,0,2.24-1.06,13.6,13.6,0,0,0,6.18-7.1.46.46,0,0,0-.39-.67,4.43,4.43,0,0,0-1.64-.93,6.77,6.77,0,0,0-2-.21,7.81,7.81,0,0,0-3.85,1.17c-2.27,1.43-3.83,4.58-4.56,7.39-1.09-.3-2.17-.65-3.27-.93s-2.19-.58-3.31-.77a12.22,12.22,0,0,0,3.68-2.7,14.84,14.84,0,0,0,2.87-4.23c1.38-3.13,2.23-7.46-.38-10a.92.92,0,0,0-1.17-.15,16.4,16.4,0,0,0-5.87,7.27c-1.43,3.18-2.08,6.68-1.56,9.3-2.72-.49-5.46-.81-8.22-1.05a11.49,11.49,0,0,0,4.51-3.71,9.19,9.19,0,0,0,1.89-6.2.45.45,0,0,0-.08-.17s0-.06,0-.08a.42.42,0,0,0-.27-.14,9.56,9.56,0,0,0-2.07,0,9.93,9.93,0,0,0-2.06.54,9.73,9.73,0,0,0-3.59,2.3c-2,1.94-2.63,4.23-3,7.14a.36.36,0,0,0,0,.09l-1.51,0-1.5,0-1.51,0c-.5,0-1,.07-1.5.1a13.25,13.25,0,0,0,3.61-6.05,17.24,17.24,0,0,0,.74-7.84.69.69,0,0,0-.13-.54v0l-.12-.11h0a.51.51,0,0,0-.45-.1,8.35,8.35,0,0,0-3.49,2.22,10.18,10.18,0,0,0-2.15,3.79,11,11,0,0,0,.91,8.69l0,0a62.1,62.1,0,0,0-8,1.17,8.29,8.29,0,0,0,2.92-5.15,9.77,9.77,0,0,0-.84-6.78l0,0c-.05-.32-.27-.6-.64-.49a6.5,6.5,0,0,0-3.05,1.92,8.64,8.64,0,0,0-1.78,3.28,11.65,11.65,0,0,0,.68,7.88s0,0,0,0a58.51,58.51,0,0,0-7.34,2.45,9,9,0,0,0,2.14-4.85,8,8,0,0,0-1.48-5.86.41.41,0,0,0-.2-.13l0,0a.46.46,0,0,0-.23,0s-.08,0-.12,0a7.78,7.78,0,0,0-5.23,5,9.29,9.29,0,0,0,1.05,7.86c-1.26.6-2.44,1.35-3.66,2s-2.36,1.51-3.47,2.37a14.61,14.61,0,0,0-.24-6.91,16.72,16.72,0,0,0-3.33-6.72.69.69,0,0,0-.4-.4h0l-.17,0h0a.5.5,0,0,0-.43.18,8.17,8.17,0,0,0-1.88,3.69,10.22,10.22,0,0,0,0,4.3,10.7,10.7,0,0,0,5,6.94l-2.25,1.88-2.13,2c-1.09,1.14-2.18,2.29-3.16,3.52,0,0,0,0,0-.05l-.43-.44a3.47,3.47,0,0,0,1.78-2.48,9.22,9.22,0,0,0,0-3.55,11.94,11.94,0,0,0-4-6.94c-.05,0-.09,0-.14,0a.44.44,0,0,0-.66,0,7.52,7.52,0,0,0-1.92,3.45,8.36,8.36,0,0,0-.06,4,9.86,9.86,0,0,0,5.1,6.52,51.24,51.24,0,0,0-4.42,6.46,10.07,10.07,0,0,0-.09-3.22,14.27,14.27,0,0,0-1.15-3.49,9.48,9.48,0,0,0-5.21-5.21.68.68,0,0,0-1-.07c-1.75,2.29-1.59,5.36-.21,8a13.69,13.69,0,0,0,6.55,6c-.51,1-1.07,2-1.51,3.1s-.93,2.1-1.31,3.18a11.78,11.78,0,0,0-1.76-5.74,8.88,8.88,0,0,0-5.07-4.08.37.37,0,0,0-.18,0h-.09a.4.4,0,0,0-.24.2,10.17,10.17,0,0,0-1,4.16,11,11,0,0,0,.8,4.29c1.13,2.62,2.91,4,5.52,5.43a.38.38,0,0,0,.54.09l0-.05c-.42,1.56-.86,3.11-1.17,4.68a14.6,14.6,0,0,0-6.38-6,14.42,14.42,0,0,0-5.16-1.43,5.94,5.94,0,0,0-4.78,1.62,1,1,0,0,0-.17,1.18c1.14,2.17,3.84,4.46,6.83,6a16.87,16.87,0,0,0,9,2c-.2,1.09-.29,2.2-.45,3.29s-.19,2.2-.31,3.29a10.49,10.49,0,0,0-10-5.18l-.05,0c-.32-.07-.66,0-.7.41a6.7,6.7,0,0,0,.69,3.48,8.41,8.41,0,0,0,2.39,2.8,10.83,10.83,0,0,0,7.16,2.4l-.56,3.84,0,0a25.24,25.24,0,0,0-.36,3,8.78,8.78,0,0,0-2.76-2.66,12.13,12.13,0,0,0-7.81-1.72c-.06,0-.08,0-.13.07a.44.44,0,0,0-.46.47,7.62,7.62,0,0,0,1.07,3.45,8.85,8.85,0,0,0,2.54,2.63,9.71,9.71,0,0,0,7.5,1.24c0,1.14.12,2.27.24,3.39s.31,2.25.51,3.37a10.52,10.52,0,0,0-2.84-1.76,16,16,0,0,0-3.55-1.11,16.39,16.39,0,0,0-7.67.18.71.71,0,0,0-.52.2h0a.71.71,0,0,0-.1.14v0a.55.55,0,0,0,0,.47A9,9,0,0,0,332,318a10.57,10.57,0,0,0,8.46-1.85c.3,1.29.6,2.59,1,3.85s.85,2.52,1.33,3.75a7.21,7.21,0,0,0-3-1.79c-2.64-.83-6.26-.71-8.47,1.54a.36.36,0,0,0-.11.26.4.4,0,0,0-.1.36,7.15,7.15,0,0,0,2.9,3.62,9.63,9.63,0,0,0,4.59,1.49c1.28.11,4.56-.14,6.16-1.21.5.93,1,1.87,1.56,2.77s1.1,1.81,1.72,2.66a12.15,12.15,0,0,0-4.7-.89,14.41,14.41,0,0,0-5.22,1c-3.17,1.26-6.77,3.8-6.57,7.53a1,1,0,0,0,.77,1,16.23,16.23,0,0,0,9.48-1c3.29-1.28,6.2-3.4,7.55-5.73a54.8,54.8,0,0,0,6,6.67,9.11,9.11,0,0,0-4.84-.06,7.81,7.81,0,0,0-4.5,3.07.46.46,0,0,0-.07.23l0,.06a.41.41,0,0,0,0,.22s0,.08,0,.12a7.9,7.9,0,0,0,6.39,3.49,9.29,9.29,0,0,0,7.16-3.51,64.82,64.82,0,0,0,6.76,4.59,13.87,13.87,0,0,0-6.51,2.25,16.79,16.79,0,0,0-5.48,5.28.71.71,0,0,0-.26.5h0a.78.78,0,0,0,0,.16v0a.56.56,0,0,0,.29.37,8,8,0,0,0,2,.62,8.92,8.92,0,0,0,2.13,0,9.6,9.6,0,0,0,4.1-1.4,10.93,10.93,0,0,0,5-7.14,59.26,59.26,0,0,0,8.29,3.85,13.15,13.15,0,0,0-2.24,1.05,13.5,13.5,0,0,0-6.18,7.11.46.46,0,0,0,.38.66,4.34,4.34,0,0,0,1.65.93,6.67,6.67,0,0,0,2,.22,7.86,7.86,0,0,0,3.86-1.18c2.26-1.42,3.82-4.58,4.55-7.38,1.1.3,2.18.64,3.28.92s2.19.59,3.3.78a12.43,12.43,0,0,0-3.68,2.69,15.16,15.16,0,0,0-2.86,4.23c-1.39,3.13-2.24,7.47.38,10a.93.93,0,0,0,1.17.15,16.5,16.5,0,0,0,5.86-7.27c1.44-3.19,2.08-6.69,1.56-9.3,2.73.48,5.47.8,8.22,1a11.52,11.52,0,0,0-4.51,3.72,9.19,9.19,0,0,0-1.88,6.2.29.29,0,0,0,.07.16.36.36,0,0,0,0,.09.39.39,0,0,0,.27.13,9.56,9.56,0,0,0,2.07,0,10,10,0,0,0,2.05-.54,9.69,9.69,0,0,0,3.6-2.3c2-1.94,2.63-4.2,3-7.11a.31.31,0,0,0,.05-.1q3,.07,6-.12a13.31,13.31,0,0,0-3.62,6,17.24,17.24,0,0,0-.74,7.84.73.73,0,0,0,.14.55h0a.43.43,0,0,0,.12.11h0a.53.53,0,0,0,.46.09,8.81,8.81,0,0,0,5.64-6,11,11,0,0,0-.92-8.7l0,0a62.58,62.58,0,0,0,8-1.16,8.22,8.22,0,0,0-2.92,5.14,9.74,9.74,0,0,0,.83,6.77l0,0c0,.33.27.6.64.5a7.26,7.26,0,0,0,4.83-5.2,11.62,11.62,0,0,0-.68-7.87l0,0a57,57,0,0,0,7.34-2.47,9.11,9.11,0,0,0-2.14,4.86,8,8,0,0,0,1.48,5.87.58.58,0,0,0,.19.14l.05,0a.34.34,0,0,0,.22,0,.32.32,0,0,0,.13,0,7.84,7.84,0,0,0,5.23-5,9.27,9.27,0,0,0-1.05-7.85,54.22,54.22,0,0,0,7.14-4.41,14.31,14.31,0,0,0,.23,6.9,16.53,16.53,0,0,0,3.33,6.72.65.65,0,0,0,.39.39h0a.41.41,0,0,0,.16,0h0a.53.53,0,0,0,.44-.17,9,9,0,0,0,1.86-8,10.77,10.77,0,0,0-5-6.94,48.65,48.65,0,0,0,4.37-3.88,43.85,43.85,0,0,0,3.16-3.52s0,0,0,.06l.44.44c-1.94.89-2.21,3.73-1.79,6a12,12,0,0,0,4,6.95.33.33,0,0,0,.14,0,.45.45,0,0,0,.66,0,8.12,8.12,0,0,0,2-7.45,9.86,9.86,0,0,0-5.1-6.51,52.42,52.42,0,0,0,4.42-6.47,12,12,0,0,0,1.23,6.72,9.53,9.53,0,0,0,5.22,5.21.66.66,0,0,0,1,.07,6.47,6.47,0,0,0,1.29-3.87,9.23,9.23,0,0,0-1.06-4.11,13.83,13.83,0,0,0-6.57-6,58.76,58.76,0,0,0,2.84-6.27,11.7,11.7,0,0,0,1.73,5.73,9,9,0,0,0,5.08,4.09.4.4,0,0,0,.19,0h.08a.37.37,0,0,0,.23-.21,9.51,9.51,0,0,0,1-4.16,10.23,10.23,0,0,0-.8-4.29c-1.06-2.59-2.95-4.06-5.51-5.43a.39.39,0,0,0-.55-.09l0,.05c.25-.77.45-1.55.64-2.33s.4-1.55.55-2.34a14.41,14.41,0,0,0,6.39,6c3.09,1.47,7.34,2.4,9.94-.19a1,1,0,0,0,.15-1.19,12.69,12.69,0,0,0-2.71-3.23,20.16,20.16,0,0,0-4.12-2.72,16.84,16.84,0,0,0-9-2c.37-2.18.58-4.38.75-6.58a9.68,9.68,0,0,0,4,3.9,9.39,9.39,0,0,0,6,1.28h0c.32.07.66,0,.7-.42a7.18,7.18,0,0,0-3.07-6.28,11.1,11.1,0,0,0-7.21-2.53l.63-3.6s0-.05-.05-.08a23.25,23.25,0,0,0,.37-3,8.89,8.89,0,0,0,2.76,2.66,12.19,12.19,0,0,0,7.81,1.72c.06,0,.08-.05.13-.07a.44.44,0,0,0,.46-.47,7.62,7.62,0,0,0-1.07-3.45,8.73,8.73,0,0,0-2.54-2.63,9.71,9.71,0,0,0-7.5-1.25,32.19,32.19,0,0,0-.24-3.39c-.09-1.13-.31-2.25-.5-3.37a10,10,0,0,0,2.84,1.77,17.43,17.43,0,0,0,11.21.92.63.63,0,0,0,.52-.2h0a.64.64,0,0,0,.1-.13v0A.53.53,0,0,0,475.39,287.09Zm-15.26-26.46a14.73,14.73,0,0,1,7-.91c-.5,2.65-3.7,4.48-6.08,5.25a9.56,9.56,0,0,1-4.34.35c-1.37-.16-2.65-.52-4-.8C455.23,263.36,457.51,261.54,460.13,260.63Zm-110.4-6.32a6.82,6.82,0,0,1-.2-3.56,12.79,12.79,0,0,1,1.14-3.3,23.89,23.89,0,0,1,2.55,5.14c.74,2.5,0,4.06-.72,5.93A12,12,0,0,1,349.73,254.31Zm-2.24,13.15a20.29,20.29,0,0,1-4.26-4.27c-1.65-2.53-1.37-4.64-.94-7.15,1.67,1.64,3.34,3,4.33,5.26a10.7,10.7,0,0,1,.84,3.16A15.87,15.87,0,0,1,347.49,267.46Zm-4.43,8.24c-.07,1-.23,2-.28,3.07a13.7,13.7,0,0,1-4.17-5.23,10.15,10.15,0,0,1-.63-3.66c0-1.21.2-2.42.34-3.67,2.29,1.82,3.94,3.65,4.55,6.28A8.89,8.89,0,0,1,343.06,275.7Zm-9.64,7.77A14.58,14.58,0,0,1,328,279c2.2-1.4,5.74-.28,7.92.93,3,1.64,3.92,4,5.4,6.24C338.76,285.2,335.9,284.76,333.42,283.47Zm.63,22.87a7.16,7.16,0,0,1-2.75-2.21,14,14,0,0,1-1.63-3,24.74,24.74,0,0,1,5.5,1.57,7,7,0,0,1,2.47,2,15,15,0,0,1,1.36,2.47A11.82,11.82,0,0,1,334.05,306.34Zm-.86,10.33a9.93,9.93,0,0,1-6-3.64,19,19,0,0,1,6.75.42,27.17,27.17,0,0,1,5.91,2.29A14.9,14.9,0,0,1,333.19,316.67Zm7.53,22.66a14.43,14.43,0,0,1-7,.91c.49-2.64,3.7-4.48,6.07-5.25a9.9,9.9,0,0,1,4.35-.35,39.47,39.47,0,0,1,3.95.81C345.62,336.6,343.35,338.42,340.72,339.33Zm110.39,6.32c.85,2.54.06,4.71-.92,6.88a24.24,24.24,0,0,1-2.56-5.15c-.7-2.47-.05-4.08.72-5.93A11.76,11.76,0,0,1,451.11,345.65Zm2.25-13.15a20.15,20.15,0,0,1,4.27,4.28,7.65,7.65,0,0,1,1.25,3.58,15.39,15.39,0,0,1-.32,3.57c-1.68-1.66-3.34-3-4.32-5.26a10.94,10.94,0,0,1-.85-3.17A18.81,18.81,0,0,1,453.36,332.5Zm4.42-8.25c.11-1,.26-2,.27-3.06a13.24,13.24,0,0,1,4.18,5.23,8.92,8.92,0,0,1,.63,3.66,27.08,27.08,0,0,1-.34,3.67c-2.3-1.83-3.89-3.63-4.55-6.28a8.14,8.14,0,0,1-.22-1.65A11.69,11.69,0,0,1,457.78,324.25Zm9.66-7.75a14.89,14.89,0,0,1,5.46,4.44c-2.24,1.39-5.78.27-7.95-.93-2.9-1.63-4-4-5.38-6.25C462.1,314.77,465,315.21,467.44,316.5Zm-.64-22.88a7.09,7.09,0,0,1,2.75,2.22,14.15,14.15,0,0,1,1.63,3,23.71,23.71,0,0,1-5.5-1.57,6.93,6.93,0,0,1-2.47-2,13.59,13.59,0,0,1-1.35-2.47A12,12,0,0,1,466.8,293.62Zm-7.72-21.41a10.85,10.85,0,0,1,3.94.08,7.41,7.41,0,0,1,3.1,1.49,26.74,26.74,0,0,1,2.52,2.28,8.92,8.92,0,0,1-8.29.35,14,14,0,0,1-3.82-3.68A14,14,0,0,1,459.08,272.21Zm-11.49-19.88c2.41-.25,4.24,1.12,6,2.47-2.16,1.52-4.32,2.7-6.74,2.37a7.7,7.7,0,0,1-2.57-.79,6.93,6.93,0,0,1-2.08-1.5C443.91,253.84,445.54,252.57,447.59,252.33Zm-9.27-8.65a8.28,8.28,0,0,1,3.32-1.3,12.08,12.08,0,0,1,1.71-.15c.57,0,1.15,0,1.73.09a19.33,19.33,0,0,1-5.26,4.25,28.14,28.14,0,0,1-5.85,2.34A15.57,15.57,0,0,1,438.32,243.68ZM426,238.11a5.45,5.45,0,0,1,2.91-.92,12.73,12.73,0,0,1,1.51,0c.49.06,1,.14,1.48.22a17.4,17.4,0,0,1-4,4.56c-1.66,1.23-4.38,2.77-5.84,1.83C423.16,241.72,424.12,239.4,426,238.11Zm-10.72-5.19a14.83,14.83,0,0,1,4.28-5.59c1.41,2.22.38,5.78-.77,8a10,10,0,0,1-2.79,3.31c-1,.85-2.18,1.51-3.26,2.23C413.7,238.32,414.08,235.42,415.3,232.92Zm-14.67,4a11.38,11.38,0,0,1,1.94-2.59,8.63,8.63,0,0,1,3.08-1.92c.55-.21,1.12-.4,1.7-.58l1.74-.44c-.84,2.8-1.91,5-4.07,6.55a7.51,7.51,0,0,1-1.42.8,9.84,9.84,0,0,1-1.42.54c-.95.29-1.92.47-2.86.85A15.26,15.26,0,0,1,400.63,237Zm-8.53-3.8c.67-2.58,2.28-4.09,4.15-5.52a20,20,0,0,1-1.15,6.71,25.94,25.94,0,0,1-1.26,2.85c-.48.94-1,1.85-1.58,2.76A15.48,15.48,0,0,1,392.1,233.16ZM381.53,236a7.47,7.47,0,0,1,1.39-3,13,13,0,0,1,2.28-2.16,9.86,9.86,0,0,1-.19,7.3,8.18,8.18,0,0,1-1.57,2.15c-.61.59-1.28,1-1.92,1.56A18.05,18.05,0,0,1,381.53,236Zm-11.86,4.28c.49-2.42,2.36-3.71,4.15-5,.78,2.52,1.25,5,.2,7.19a9.44,9.44,0,0,1-1.53,2.22,7.62,7.62,0,0,1-2.06,1.52C370,244.26,369.26,242.3,369.67,240.3ZM357.77,246a8.62,8.62,0,0,1-.24-3.61,15.33,15.33,0,0,1,1-3.33c2.62,4.39,3,8.31,2.87,12.68A15.13,15.13,0,0,1,357.77,246ZM335.05,294.8c-2.06-1.34-2.83-3.17-3.49-5.23a9.91,9.91,0,0,1,6.74,2.77,9.8,9.8,0,0,1,2.18,4.54A18.16,18.16,0,0,1,335.05,294.8Zm6.72,32.95a10.8,10.8,0,0,1-3.93-.07,7.54,7.54,0,0,1-3.1-1.49,27,27,0,0,1-2.53-2.29,9,9,0,0,1,8.3-.35,14,14,0,0,1,3.81,3.69A13.09,13.09,0,0,1,341.77,327.75Zm11.5,19.89c-2.42.24-4.25-1.12-6-2.47,2.17-1.53,4.32-2.71,6.74-2.37a7.6,7.6,0,0,1,2.58.79,6.72,6.72,0,0,1,2.07,1.5C356.94,346.12,355.32,347.39,353.27,347.64Zm9.26,8.64a8,8,0,0,1-3.31,1.3,12.36,12.36,0,0,1-1.72.16c-.57,0-1.14,0-1.73-.09a19.56,19.56,0,0,1,5.27-4.26,28.11,28.11,0,0,1,5.85-2.33A15.47,15.47,0,0,1,362.53,356.28Zm12.31,5.58a5.5,5.5,0,0,1-2.92.91,10.76,10.76,0,0,1-1.5,0c-.5-.06-1-.14-1.48-.21a17.28,17.28,0,0,1,4-4.57c1.65-1.23,4.37-2.77,5.84-1.82C377.7,358.25,376.73,360.56,374.84,361.86ZM385.56,367a14.78,14.78,0,0,1-4.29,5.59c-1.4-2.21-.37-5.77.78-8a9.86,9.86,0,0,1,2.79-3.31c1.05-.85,2.17-1.5,3.26-2.23C387.16,361.65,386.78,364.54,385.56,367Zm12.73-1.44a8.78,8.78,0,0,1-3.09,1.91c-.55.22-1.12.4-1.69.58l-1.75.44c.85-2.8,1.92-5,4.08-6.54a7.21,7.21,0,0,1,1.41-.8,10,10,0,0,1,1.43-.55c.95-.29,1.91-.47,2.86-.83A13.49,13.49,0,0,1,398.29,365.6Zm10.46,1.22a9.87,9.87,0,0,1-4.15,5.51c0-5.1,1.72-8.66,4-12.31A15.48,15.48,0,0,1,408.75,366.82ZM419.33,364a8.76,8.76,0,0,1-3.67,5.14,9.89,9.89,0,0,1,.19-7.31,10.14,10.14,0,0,1,3.49-3.7A18.34,18.34,0,0,1,419.33,364Zm11.86-4.28c-.49,2.4-2.36,3.71-4.15,4.95-.79-2.54-1.25-5-.2-7.18a8,8,0,0,1,3.59-3.75C430.88,355.71,431.59,357.66,431.19,359.68Zm11.9-5.66a10,10,0,0,1-.77,7c-2.61-4.39-3-8.32-2.87-12.69A15.25,15.25,0,0,1,443.09,354Zm11.45-32.67c-2.09,6.95-5.24,14-10.22,19.41a50.38,50.38,0,0,1-19.34,13,60.09,60.09,0,0,1-22.48,3.76,79.88,79.88,0,0,1-22.4-3.43,60.62,60.62,0,0,1-20.43-10.91,49.19,49.19,0,0,1-14-18.65c-3.2-7.32-3.93-13.87-3.28-23.5,0,0,2-15.71,3.94-22.42,2-7,5.23-14,10.21-19.41a50.47,50.47,0,0,1,19.34-13,59.84,59.84,0,0,1,22.47-3.76,78.91,78.91,0,0,1,22.41,3.42,60.51,60.51,0,0,1,20.43,10.9,50.88,50.88,0,0,1,14.4,18.8,45.77,45.77,0,0,1,3,23.61S456.5,314.83,454.54,321.35Zm11.27-16.18c2.05,1.33,2.82,3.17,3.48,5.22a8.6,8.6,0,0,1-8.92-7.31A18.08,18.08,0,0,1,465.81,305.17Zm1.06-18.66a26.4,26.4,0,0,1-5.9-2.29,14.86,14.86,0,0,1,6.7-.92,9.94,9.94,0,0,1,6,3.64A18.76,18.76,0,0,1,466.87,286.51Z" transform="translate(-325.42 -224.97)"/></svg>