<svg id="Layer_1" data-name="Layer 1" xmlns="http://www.w3.org/2000/svg" viewBox="0 0 705.28 705.28"><defs><style>.cls-1{fill:#fec461;}.cls-2{fill:#010101;}.cls-3{fill:none;}</style></defs><title>pin_goaaa</title><circle class="cls-1" cx="352.64" cy="352.64" r="352.64"/><path class="cls-2" d="M182.41,499.76a14.48,14.48,0,0,1-6.77-6.48,19,19,0,0,1-2-9.9q.34-10.2,10-22.56t31.72-23.63l3-1.54.68-24.54q-6.18,14.83-15.23,22.66t-19.21,9.31a28.57,28.57,0,0,1-13.88-1.15,33.05,33.05,0,0,1-11.91-7.22,39.52,39.52,0,0,1-8.76-12.35,49.57,49.57,0,0,1-4.27-16.84,110.37,110.37,0,0,1,1.39-29.34A77,77,0,0,1,154.86,354,47.71,47.71,0,0,1,167,339.24a42.67,42.67,0,0,1,14.93-7.76,36.35,36.35,0,0,1,22.34,1.41,33.49,33.49,0,0,1,16.94,14.88l.71-25.24a3.36,3.36,0,0,1,6.72.17L225.1,432.61A51.24,51.24,0,0,0,236,424.94a65.32,65.32,0,0,0,9.25-10.41,68.15,68.15,0,0,0,7-12.31,66.25,66.25,0,0,0,4.23-13.14c.43-2.26,1.71-3.16,3.84-2.68a2.68,2.68,0,0,1,2,1.38,3.7,3.7,0,0,1,.69,2.45,55.72,55.72,0,0,1-3.93,14.21,70.63,70.63,0,0,1-7.39,13.33,74.39,74.39,0,0,1-9.78,11.37,55.82,55.82,0,0,1-11.32,8.36l-5.76,3.22-.41,10q.15,17.64-5.13,28.32a45.26,45.26,0,0,1-16.54,18Q191.66,504.05,182.41,499.76Zm37.65-120.19.35-11.81a36.31,36.31,0,0,0-4.15-15.15,31.83,31.83,0,0,0-8.61-10.21,26.1,26.1,0,0,0-11.39-4.95,30.63,30.63,0,0,0-12.73.47,35.91,35.91,0,0,0-12.21,6.43,41.88,41.88,0,0,0-10.63,12.86,67.24,67.24,0,0,0-6.9,20Q151.48,389,152.54,405A40.25,40.25,0,0,0,156,419.66a31.49,31.49,0,0,0,7.25,10.25,26.08,26.08,0,0,0,9.64,5.68,22.92,22.92,0,0,0,10.81.86,31.45,31.45,0,0,0,11.3-4.33,37.66,37.66,0,0,0,10.86-10.4,69.48,69.48,0,0,0,8.81-17.3A111.29,111.29,0,0,0,220.06,379.57ZM199.33,491.33A38.28,38.28,0,0,0,213.4,476q4.53-9.21,4.54-25.52l.28-7.2L212.77,446a108.67,108.67,0,0,0-15.21,10.48,70,70,0,0,0-9.93,10,38.27,38.27,0,0,0-5.55,9.26,24.77,24.77,0,0,0-1.92,7.89,11.77,11.77,0,0,0,1.45,6.37,8.9,8.9,0,0,0,9.55,4.56A19,19,0,0,0,199.33,491.33Z" transform="translate(-47.36 -47.36)"/><path class="cls-2" d="M586.06,219l.11-.08.07-.08Z" transform="translate(-47.36 -47.36)"/><path class="cls-2" d="M586.24,218.78h0C586.3,218.73,586.32,218.71,586.24,218.78Z" transform="translate(-47.36 -47.36)"/><path class="cls-2" d="M584.52,229.1" transform="translate(-47.36 -47.36)"/><path class="cls-2" d="M576.67,248.73" transform="translate(-47.36 -47.36)"/><path class="cls-2" d="M293.13,415.57a29.32,29.32,0,0,1-14-1.15,32.31,32.31,0,0,1-12-7.21,39.41,39.41,0,0,1-8.74-12.37,46.59,46.59,0,0,1-4-16.9Q253,358.34,256.61,344t10.23-23.4A43.16,43.16,0,0,1,282,307.18a38.43,38.43,0,0,1,17.37-4.39,34.93,34.93,0,0,1,16.78,4.15,35.72,35.72,0,0,1,13.1,12l-.05-1.82-.18-22a3.44,3.44,0,0,1,1.07-2.37,3.07,3.07,0,0,1,2.39-.89,3.53,3.53,0,0,1,2.33.95,2.83,2.83,0,0,1,.87,2.29l-.87,88.19a19.83,19.83,0,0,0,1,7.41,7.75,7.75,0,0,0,2.48,3.55q2.64,2,8.15-.44,5.88-2.77,12-11t9-21.47a3.49,3.49,0,0,1,1.5-2,2.79,2.79,0,0,1,2.4-.44,2.67,2.67,0,0,1,2,1.5,3.54,3.54,0,0,1,.22,2.47q-2.61,14.5-9.62,23.93t-14.69,13.17a19.69,19.69,0,0,1-7.87,1.85,11.41,11.41,0,0,1-7.17-2.25q-6-4.07-6.19-16.41a.46.46,0,0,1,0-.35.42.42,0,0,0,0-.35q-6,15.47-15.24,23.55T293.13,415.57ZM329,339.19q-1.11-11.4-7-18.72a28.15,28.15,0,0,0-30.81-10q-8.84,2.46-16,10.44t-11.42,22q-4.23,14.06-2.86,34.56a39.93,39.93,0,0,0,3.37,14.56,32.63,32.63,0,0,0,7.23,10.27,25.37,25.37,0,0,0,9.77,5.77,23.79,23.79,0,0,0,10.91.85,30.28,30.28,0,0,0,11.29-4.41,39.21,39.21,0,0,0,10.77-10.36A70.77,70.77,0,0,0,323.12,377a105.84,105.84,0,0,0,5.51-25.08Z" transform="translate(-47.36 -47.36)"/><path class="cls-2" d="M373.53,388.53q-6.09-4.5-6.19-16.41l.83-83.37L356,292.14a3.32,3.32,0,0,1-1.79-6.39l14.07-3.92-.17-47.49a3.28,3.28,0,0,1,3.45-3.26,3.53,3.53,0,0,1,2.33.95,2.83,2.83,0,0,1,.87,2.29l.12,45.66,12.14-3.39a3.41,3.41,0,0,1,4.09,2.3,3.41,3.41,0,0,1-2.3,4.09L375,286.85l-.94,85.46a19.77,19.77,0,0,0,1,7.4,6.52,6.52,0,0,0,2.43,3.34q2.48,2.31,8.2-.22,5.67-2.73,11.75-11t9.05-21.48c.47-2.12,1.85-3,4.12-2.52a2.76,2.76,0,0,1,1.81,1.56,4.5,4.5,0,0,1,.44,2.4q-2.52,14-9.68,23.72t-14.7,13.17a17.61,17.61,0,0,1-7.8,2.07A11.43,11.43,0,0,1,373.53,388.53Z" transform="translate(-47.36 -47.36)"/><path class="cls-2" d="M410.25,257.71a7.79,7.79,0,0,1-4.78-2.33,6.05,6.05,0,0,1-1.64-5.06,6.75,6.75,0,0,1,2.23-4.76,6.44,6.44,0,0,1,4.88-1.82,7.22,7.22,0,0,1,4.93,2.41,6.77,6.77,0,0,1,1.72,4.92,7.86,7.86,0,0,1-2.34,4.79A6.59,6.59,0,0,1,410.25,257.71Zm2.47,119.88q-6-4.08-6.19-16.42l1-87.77a3.49,3.49,0,0,1,1-2.33,2.84,2.84,0,0,1,2.29-.87,4.11,4.11,0,0,1,2.44.93,2.59,2.59,0,0,1,1,2.25q-.1,21.86-.24,36.58t-.26,24.53c-.1,6.54-.18,11.84-.27,15.92s-.13,7.73-.15,10.95a19.83,19.83,0,0,0,1,7.41,6.52,6.52,0,0,0,2.43,3.34,7.82,7.82,0,0,0,3.35.9,10.68,10.68,0,0,0,4.85-1.12q5.67-2.73,11.75-11t9-21.47q.78-3,3.91-2.47a3.58,3.58,0,0,1,2,1.5,2.85,2.85,0,0,1,.44,2.41q-2.94,14.13-9.9,23.77T427.7,377.77a17,17,0,0,1-7.7,2A12.51,12.51,0,0,1,412.72,377.59Z" transform="translate(-47.36 -47.36)"/><path class="cls-2" d="M452.13,366.58q-6.08-4.5-6.19-16.41l.84-83.37-12.14,3.39a3.32,3.32,0,0,1-1.79-6.39l14.06-3.92-.17-47.49a3.29,3.29,0,0,1,3.45-3.26,3.54,3.54,0,0,1,2.34,1,2.82,2.82,0,0,1,.86,2.29l.13,45.66,12.14-3.39a3.42,3.42,0,0,1,4.09,2.31,3.21,3.21,0,0,1-.34,2.5,3.16,3.16,0,0,1-2,1.58L453.6,264.9l-.94,85.46a19.77,19.77,0,0,0,1,7.4,6.56,6.56,0,0,0,2.43,3.35q2.47,2.29,8.2-.23,5.67-2.73,11.75-11t9.05-21.47c.47-2.12,1.85-3,4.11-2.53a2.77,2.77,0,0,1,1.82,1.56,4.52,4.52,0,0,1,.44,2.4q-2.52,14-9.69,23.72t-14.69,13.17a17.61,17.61,0,0,1-7.8,2.07A11.41,11.41,0,0,1,452.13,366.58Z" transform="translate(-47.36 -47.36)"/><path class="cls-2" d="M190.87,553.52a118.59,118.59,0,0,1,1.22-28.93,74.89,74.89,0,0,1,7.21-21.88,48.84,48.84,0,0,1,11.81-14.89,42.22,42.22,0,0,1,14.51-8.07,29.08,29.08,0,0,1,6.14-1,30.5,30.5,0,0,1,22.43,6.71,46.57,46.57,0,0,1,14.38,20.67l.12.43.21-.06A55.38,55.38,0,0,0,286,487a3.07,3.07,0,0,1,1.81-1.77,3,3,0,0,1,2.61.31,3.1,3.1,0,0,1,1.46,4.41,63.82,63.82,0,0,1-9.15,12.89A67.69,67.69,0,0,1,271.17,513l-.79.45.24.85A66.31,66.31,0,0,1,271.69,528q-.74,20.41-6.64,33.77t-14.6,20.5a36.14,36.14,0,0,1-18.8,8.35,34.33,34.33,0,0,1-18.81-2.79,37.52,37.52,0,0,1-14.91-12.71Q191.71,566.38,190.87,553.52ZM265,527.78a31.48,31.48,0,0,0,0-5c-.16-1.64-.31-3.28-.46-4.92l-.08-1.13-.8.45a43.91,43.91,0,0,1-19.08,3.61,33.1,33.1,0,0,1-18.85-7,29.75,29.75,0,0,1-7.66-8.53A22.18,22.18,0,0,1,214.71,495a.92.92,0,0,1,0-.7l0-.69-.8.45q-8.21,7.58-13.13,22t-3.45,37q.73,10.83,5.87,18.11a29.82,29.82,0,0,0,12.47,10.53,28.22,28.22,0,0,0,15.72,2,29.89,29.89,0,0,0,15.68-7.59q7.29-6.39,12.22-18.34T265,527.78ZM262.77,510l-.41-1.49a39.07,39.07,0,0,0-12-17.54,24.87,24.87,0,0,0-18.13-5.73l-2,.32c-3.73.89-6.17,2.18-7.3,3.87a9,9,0,0,0-1.63,5.28,16.4,16.4,0,0,0,2.42,7,22.21,22.21,0,0,0,6,6.7,27.41,27.41,0,0,0,16,5.63,36.73,36.73,0,0,0,16.65-3.73Z" transform="translate(-47.36 -47.36)"/><path class="cls-2" d="M289.82,574.8a3.49,3.49,0,0,1-2.33-.95,2.77,2.77,0,0,1-.87-2.29l.76-105.84a3.43,3.43,0,0,1,1.06-2.37,3.07,3.07,0,0,1,2.39-.89,3.28,3.28,0,0,1,3.26,3.45c0,2.15,0,4.76-.11,7.84s-.13,6.39-.21,9.93q5.46-12.54,13.05-20.29T322.39,453a20.08,20.08,0,0,1,20.91,5q8.76,8.35,9.1,26.85l-.95,51.71a19.74,19.74,0,0,0,1,7.4,6.52,6.52,0,0,0,2.42,3.34,7.62,7.62,0,0,0,3.35.9,10.69,10.69,0,0,0,4.86-1.12q5.65-2.73,11.82-11.11t9.18-21.4a3.53,3.53,0,0,1,1.51-2A2.79,2.79,0,0,1,388,512q3,.78,2.25,4-2.67,14.29-9.68,23.72t-14.69,13.17a16.73,16.73,0,0,1-7.6,2,11.47,11.47,0,0,1-7.17-2.25q-6.34-4.65-6.4-16.35l1-51.5a40.19,40.19,0,0,0-2.15-13.86,25.63,25.63,0,0,0-5-8.48q-5.68-5.54-14.2-3.15a30.28,30.28,0,0,0-8.82,5,43.19,43.19,0,0,0-8.81,9.58,74.14,74.14,0,0,0-7.61,14.29,100.05,100.05,0,0,0-5.49,19l.06.22-.45,64.19a3.43,3.43,0,0,1-1.06,2.37A3.07,3.07,0,0,1,289.82,574.8Z" transform="translate(-47.36 -47.36)"/><path class="cls-2" d="M390.61,541.84a13.63,13.63,0,0,1-4.72-6.61,28.09,28.09,0,0,1-1.47-9.8l1.5-137.75a3.49,3.49,0,0,1,.95-2.33,2.82,2.82,0,0,1,2.29-.87,3.54,3.54,0,0,1,2.33,1,2.83,2.83,0,0,1,.87,2.28L391.07,525.4a21.17,21.17,0,0,0,1.1,7.62,6.47,6.47,0,0,0,2.42,3.34,6,6,0,0,0,3.25.94,9.84,9.84,0,0,0,4.9-1.37q5.65-2.73,11.88-10.9t9.18-21.39c.48-2.12,1.85-3,4.12-2.53a3.58,3.58,0,0,1,2,1.5,2.79,2.79,0,0,1,.44,2.4q-2.61,14.52-9.81,24.1t-15,12.91a26.48,26.48,0,0,1-7.87,1.85A10.35,10.35,0,0,1,390.61,541.84Z" transform="translate(-47.36 -47.36)"/><path class="cls-2" d="M427.92,410.63a7.75,7.75,0,0,1-4.79-2.34,6,6,0,0,1-1.64-5.05,6.75,6.75,0,0,1,2.23-4.76,6.42,6.42,0,0,1,4.89-1.82,7.22,7.22,0,0,1,4.92,2.41,6.73,6.73,0,0,1,1.72,4.92,7.88,7.88,0,0,1-2.34,4.79A6.56,6.56,0,0,1,427.92,410.63Zm2.47,119.87q-6-4.07-6.19-16.41l1-87.77a3.49,3.49,0,0,1,.95-2.33,2.82,2.82,0,0,1,2.29-.87,4.11,4.11,0,0,1,2.44.93,2.59,2.59,0,0,1,1,2.25q-.09,21.85-.23,36.58t-.27,24.53q-.13,9.81-.26,15.92t-.16,10.95a20.07,20.07,0,0,0,1,7.41,6.52,6.52,0,0,0,2.43,3.34,7.86,7.86,0,0,0,3.35.9,10.58,10.58,0,0,0,4.85-1.13q5.67-2.71,11.75-11t9.05-21.47q.76-3,3.9-2.47a3.58,3.58,0,0,1,2,1.5,2.82,2.82,0,0,1,.44,2.41q-2.94,14.13-9.9,23.77t-14.48,13.11a16.86,16.86,0,0,1-7.7,2A12.49,12.49,0,0,1,430.39,530.5Z" transform="translate(-47.36 -47.36)"/><path class="cls-2" d="M466.63,525.44a3.54,3.54,0,0,1-2.33-1,2.8,2.8,0,0,1-.87-2.28l.76-105.85a3.43,3.43,0,0,1,1.06-2.37,3.07,3.07,0,0,1,2.39-.89,3.29,3.29,0,0,1,3.26,3.45c0,2.15,0,4.76-.1,7.84s-.14,6.39-.22,9.93Q476,421.77,483.63,414t15.58-10.44a20.07,20.07,0,0,1,20.9,5q8.76,8.35,9.1,26.85l-.94,51.71a19.77,19.77,0,0,0,1,7.4,6.57,6.57,0,0,0,2.42,3.34,7.63,7.63,0,0,0,3.36.9,10.68,10.68,0,0,0,4.85-1.12q5.67-2.73,11.82-11.11t9.19-21.39a3.55,3.55,0,0,1,1.5-2,2.79,2.79,0,0,1,2.4-.44q3,.78,2.26,4-2.69,14.31-9.69,23.72T542.72,503.5a16.73,16.73,0,0,1-7.59,2,11.43,11.43,0,0,1-7.17-2.25q-6.36-4.65-6.41-16.35l1-51.49a40.22,40.22,0,0,0-2.15-13.87,25.57,25.57,0,0,0-5-8.48q-5.67-5.54-14.2-3.15a30.28,30.28,0,0,0-8.82,5,43.35,43.35,0,0,0-8.81,9.57,74.85,74.85,0,0,0-7.61,14.3,100,100,0,0,0-5.49,19l.06.21-.45,64.19a3.37,3.37,0,0,1-1.06,2.37A3.11,3.11,0,0,1,466.63,525.44Z" transform="translate(-47.36 -47.36)"/><path class="cls-2" d="M581.54,484.62a37.56,37.56,0,0,1-11-6.11,27.33,27.33,0,0,1-7.38-8.73q-4.77-9.69-3.12-16.93a20.29,20.29,0,0,1,8.34-12.08,34.2,34.2,0,0,1,4.83-2.85,58,58,0,0,1,5.65-2.38l.86-.24-2.61-1.1h0q-7.79-4-11-10.6A36.07,36.07,0,0,1,562.35,411,28.94,28.94,0,0,1,564,399.16a30.84,30.84,0,0,1,13.37-16.25,31.58,31.58,0,0,1,9-3.65,36.06,36.06,0,0,1,10.81-.38,25.19,25.19,0,0,1,10.26,3.45,19,19,0,0,1,7.18,8.45q2.43,5.4,1.41,13.27a3,3,0,0,1-1.26,2.07,3.66,3.66,0,0,1-2.53.82h0a4.07,4.07,0,0,1-2.1-1.37,2.83,2.83,0,0,1-.58-2.47q.79-6.19-1.08-10a12.35,12.35,0,0,0-5.25-5.65,18.78,18.78,0,0,0-7.6-2.12,27.58,27.58,0,0,0-7.9.48,22,22,0,0,0-6.9,2.84,27,27,0,0,0-6.21,5.3,22.94,22.94,0,0,0-4.33,7.52,21.46,21.46,0,0,0-1.09,9.26,22.25,22.25,0,0,0,1.89,7.17,19.92,19.92,0,0,0,5.35,7.23,27.08,27.08,0,0,0,9.72,5.21,36.59,36.59,0,0,0,14.79,1.15,3.59,3.59,0,0,1,2.54.9,3.2,3.2,0,0,1,1,2.12,3.61,3.61,0,0,1-.6,2.35,3,3,0,0,1-2.28,1.32l-.21.06a100.23,100.23,0,0,0-16.62,2.57,35.08,35.08,0,0,0-12.56,5.58,13.79,13.79,0,0,0-5.72,7.91q-1.29,4.85,2.68,12.46a25,25,0,0,0,5.52,6.61,26.28,26.28,0,0,0,8.75,5h0a66.52,66.52,0,0,0,8.39,1.67,37,37,0,0,0,9.87,0,48.31,48.31,0,0,0,10.64-2.62,41.63,41.63,0,0,0,10.73-6,39.7,39.7,0,0,0,9.89-11c2.92-4.64,11.28-19.31,11.16-33.29.61-9.94-4.3-33.86,2.61-34.86.18,0,.37-.2.66-.25a5.21,5.21,0,0,1,5.77,4c2.39,9.52,3.81,35.47-14,67.35a45.7,45.7,0,0,1-10.31,12.41,42,42,0,0,1-12.72,7.91,49.47,49.47,0,0,1-12.9,3.14,52.62,52.62,0,0,1-11.87-.13A58.17,58.17,0,0,1,581.54,484.62Z" transform="translate(-47.36 -47.36)"/><path class="cls-2" d="M623.83,281.32a49.35,49.35,0,0,0-10-12A107.61,107.61,0,0,1,603,258.55a47.18,47.18,0,0,1-8.27-14q-3.21-8.18-2.54-21.45c0-.17,0-.81,0-1a3.59,3.59,0,0,0-2.37-3.68,3.23,3.23,0,0,0-4.17,2.27l-2,8.22a47.71,47.71,0,0,1-2.64,7.71c-1.15,2.6-2.93,6.44-4.1,9a41.18,41.18,0,0,1-3.84,6.7,54.48,54.48,0,0,1-13.09,13.06l-.22.06-.11-.43a46.66,46.66,0,0,0-14.39-20.67,30.53,30.53,0,0,0-22.43-6.71,29.3,29.3,0,0,0-6.14,1,42.41,42.41,0,0,0-14.51,8.07,48.81,48.81,0,0,0-11.8,14.89,74.6,74.6,0,0,0-7.21,21.88,118.12,118.12,0,0,0-1.22,28.93q.83,12.85,7.05,21.57a37.54,37.54,0,0,0,14.92,12.71,34.29,34.29,0,0,0,18.8,2.79,36,36,0,0,0,18.8-8.35q8.68-7.12,14.6-20.5t6.64-33.77a65.68,65.68,0,0,0-1.07-13.71l-.23-.85.79-.45a68.07,68.07,0,0,0,11.53-10.11A63.9,63.9,0,0,0,582.8,249l.12-.24c.31-.71,2-4.34,3.93-9,1.24,4.48,2.54,8.85,3.6,11.68.52,1.12,1.08,2.2,1.67,3.24a2.43,2.43,0,0,1,.31.56,38.5,38.5,0,0,0,3.84,5.48q3.78,4.46,7.72,8.3c2.62,2.56,5.2,5.05,7.71,7.49a38.05,38.05,0,0,1,6.43,8.19q4.73,7.88,5,14.57a22,22,0,0,1-2.39,11.58,17.56,17.56,0,0,1-7.47,7.36,18.18,18.18,0,0,1-10,2.1,20.44,20.44,0,0,1-8.38-2,16.59,16.59,0,0,1-5.62-4.52,15.87,15.87,0,0,1-3-6.06,23.63,23.63,0,0,1-.64-6.83,18.6,18.6,0,0,1,1.57-6.29,13.61,13.61,0,0,1,3.57-4.9,12.76,12.76,0,0,1,5.35-2.64,13.81,13.81,0,0,1,7.12.42,3.31,3.31,0,0,0,2.54-.36,3.18,3.18,0,0,0,1.64-2c.51-2-.25-3.37-2.32-4.17a26.57,26.57,0,0,0-6.59-.87l.12.06a19.23,19.23,0,0,0-16,9.39,19.75,19.75,0,0,0-2.06,4.27c-.87,2.86-.81,6.33-.76,9.32a27.93,27.93,0,0,0,.55,5.18c1.21,6.05,4.91,10.15,5.93,12,.35.29.69.59,1,.89q5.68,5.17,15.53,5.88a24.86,24.86,0,0,0,23.5-12.88,29,29,0,0,0,3.3-14.93Q629.45,290.78,623.83,281.32ZM513.94,248.38c1.12-1.67,3.5-2.94,7.14-3.83l.32-.07,1.62-.26.4-.05a24.9,24.9,0,0,1,17.94,5.75,39.05,39.05,0,0,1,12,17.54l.42,1.49-.37.33A36.69,36.69,0,0,1,536.78,273a27.44,27.44,0,0,1-16-5.63,22.18,22.18,0,0,1-6-6.7,16.27,16.27,0,0,1-2.42-7A9,9,0,0,1,513.94,248.38Zm42,38.33q-.69,18.1-5.62,30t-12.22,18.34a29.86,29.86,0,0,1-15.67,7.59,28.27,28.27,0,0,1-15.73-2,30,30,0,0,1-12.47-10.52q-5.13-7.31-5.86-18.12-1.47-22.54,3.44-37T505,253l.79-.45,0,.7a.89.89,0,0,0,0,.69A22.3,22.3,0,0,0,509,264.11a30,30,0,0,0,7.67,8.54,33.16,33.16,0,0,0,18.84,7,44,44,0,0,0,19.09-3.61l.79-.45.08,1.13c.15,1.64.31,3.28.46,4.92A30.37,30.37,0,0,1,556,286.71Z" transform="translate(-47.36 -47.36)"/><path class="cls-3" d="M208.07,344.94a26.31,26.31,0,0,0-11.37-5,30.68,30.68,0,0,0-12.74.46,35.9,35.9,0,0,0-12.22,6.39,42,42,0,0,0-10.65,12.85,67.06,67.06,0,0,0-6.94,20q-2.34,11.79-1.31,27.81a40.46,40.46,0,0,0,3.41,14.66,31.54,31.54,0,0,0,7.23,10.27,26.11,26.11,0,0,0,9.62,5.69,23.07,23.07,0,0,0,10.81.89,31.67,31.67,0,0,0,11.32-4.31,37.78,37.78,0,0,0,10.88-10.39A69.32,69.32,0,0,0,215,407a110.84,110.84,0,0,0,5.46-24.83l.38-11.82a36.49,36.49,0,0,0-4.12-15.15A31.66,31.66,0,0,0,208.07,344.94Z" transform="translate(-47.36 -47.36)"/><path class="cls-3" d="M197.77,459a69.68,69.68,0,0,0-10,10,38.35,38.35,0,0,0-5.57,9.25,24.81,24.81,0,0,0-1.93,7.89,11.8,11.8,0,0,0,1.43,6.37,8.91,8.91,0,0,0,9.55,4.57,18.94,18.94,0,0,0,8.17-3.2,38.16,38.16,0,0,0,14.1-15.3q4.56-9.19,4.59-25.51l.29-7.2L213,448.51A109.45,109.45,0,0,0,197.77,459Z" transform="translate(-47.36 -47.36)"/><path class="cls-2" d="M210.28,338.27l-.87.28,7,4.73A32.41,32.41,0,0,0,210.28,338.27Z" transform="translate(-47.36 -47.36)"/><path class="cls-2" d="M145.74,323.81" transform="translate(-47.36 -47.36)"/><path class="cls-2" d="M149,372.53s3.34-17.88,16.67-29.31Z" transform="translate(-47.36 -47.36)"/></svg>