<?xml version="1.0" encoding="iso-8859-1"?>
<!-- Generator: Adobe Illustrator 19.0.0, SVG Export Plug-In . SVG Version: 6.00 Build 0)  -->
<svg version="1.1" id="Layer_1" xmlns="http://www.w3.org/2000/svg" xmlns:xlink="http://www.w3.org/1999/xlink" x="0px" y="0px"
	 viewBox="0 0 512.003 512.003" style="enable-background:new 0 0 512.003 512.003;" xml:space="preserve">
<path style="fill:#54DEE2;" d="M172.035,341.897h-10.902v37.041h10.902c5.59,0,10.163-4.59,10.163-10.202v-16.637
	C182.197,346.489,177.624,341.897,172.035,341.897z"/>
<path style="fill:#F16A5D;" d="M159.217,180.55c1.202,1.702,1.915,3.769,1.915,5.998V288.53c0,2.23-0.715,4.298-1.916,5.999
	l141.776,82.768V97.783L159.217,180.55z"/>
<g>
	<path style="fill:#A5998E;" d="M57.395,194.985H28.735c-11.494,0-20.898,9.404-20.898,20.898v43.314
		c0,11.494,9.404,20.898,20.898,20.898h28.661V194.985z"/>
	<path style="fill:#A5998E;" d="M150.684,298.979h-58.71V434.42c0,6.327,5.156,11.504,11.457,11.504h46.243
		c6.301,0,11.458-5.177,11.458-11.504V288.53C161.133,294.277,156.431,298.979,150.684,298.979z"/>
</g>
<path style="opacity:0.1;enable-background:new    ;" d="M113.2,434.42V298.979H91.974V434.42c0,6.327,5.156,11.504,11.457,11.504
	h21.225C118.355,445.924,113.2,440.746,113.2,434.42z"/>
<g style="opacity:0.1;">
	<path d="M29.608,259.198v-43.314c0-11.494,9.404-20.898,20.898-20.898H28.735c-11.494,0-20.898,9.404-20.898,20.898v43.314
		c0,11.494,9.404,20.898,20.898,20.898h21.771C39.012,280.096,29.608,270.691,29.608,259.198z"/>
</g>
<path style="fill:#A5998E;" d="M344.879,194.397v86.286c19.281-4.678,33.616-22.212,33.616-43.143
	C378.495,216.609,364.162,199.074,344.879,194.397z"/>
<path style="opacity:0.1;enable-background:new    ;" d="M161.133,263.247v25.283c0,2.23-0.715,4.298-1.916,5.999l141.776,82.768
	v-32.401L161.133,263.247z"/>
<path style="fill:#EA3939;" d="M161.133,288.53c0,5.747-4.702,10.449-10.449,10.449h-82.84c-5.747,0-10.449-4.702-10.449-10.449
	V186.548c0-5.747,4.702-10.449,10.449-10.449h82.84c5.747,0,10.449,4.702,10.449,10.449V288.53z"/>
<g style="opacity:0.1;">
	<path d="M78.718,288.53V186.548c0-5.747,4.702-10.449,10.449-10.449H67.844c-5.747,0-10.449,4.702-10.449,10.449V288.53
		c0,5.747,4.702,10.449,10.449,10.449h21.323C83.42,298.979,78.718,294.277,78.718,288.53z"/>
</g>
<path style="fill:#EA3939;" d="M344.879,398.552c0,5.747-4.702,10.449-10.449,10.449h-22.99c-5.747,0-10.449-4.702-10.449-10.449
	V76.529c0-5.747,4.702-10.449,10.449-10.449h22.99c5.747,0,10.449,4.702,10.449,10.449V398.552z"/>
<g style="opacity:0.1;">
	<path d="M318,398.552V76.529c0-5.747,4.702-10.449,10.449-10.449h-17.008c-5.747,0-10.449,4.702-10.449,10.449v322.025
		c0,5.747,4.702,10.449,10.449,10.449h17.008C322.702,409.001,318,404.299,318,398.552z"/>
</g>
<path d="M352.716,188.642V76.529c0-10.082-8.202-18.286-18.286-18.286h-22.99c-10.082,0-18.286,8.203-18.286,18.286v16.757
	l-42.151,24.606c-3.738,2.183-4.999,6.982-2.817,10.72c2.183,3.739,6.984,4.996,10.719,2.817l34.249-19.995v252.215l-124.376-72.612
	c0.113-0.821,0.192-1.653,0.192-2.506v-46.116c0-4.329-3.509-7.837-7.837-7.837c-4.328,0-7.837,3.508-7.837,7.837v46.116
	c0,1.416-1.196,2.612-2.612,2.612h-82.84c-1.416,0-2.612-1.196-2.612-2.612V186.549c0-1.416,1.196-2.612,2.612-2.612h82.84
	c1.416,0,2.612,1.196,2.612,2.612v25.567c0,4.329,3.509,7.837,7.837,7.837c4.328,0,7.837-3.508,7.837-7.837v-25.568
	c0-0.853-0.079-1.683-0.192-2.504l64.006-37.368c3.738-2.182,4.999-6.981,2.817-10.719c-2.183-3.739-6.981-4.999-10.719-2.816
	l-64.732,37.791c-2.765-1.682-5.998-2.671-9.465-2.671h-82.84c-10.082,0-18.286,8.202-18.286,18.286v0.6H28.735
	C12.89,187.148,0,200.039,0,215.882v43.314c0,15.844,12.89,28.735,28.735,28.735h20.824v0.598c0,10.082,8.203,18.286,18.286,18.286
	h16.294v127.604c0,10.664,8.655,19.341,19.294,19.341h46.243c10.639,0,19.295-8.677,19.295-19.341v-47.645h3.066
	c9.924,0,17.999-8.092,17.999-18.039v-16.637c0-9.947-8.075-18.039-17.999-18.039h-3.066v-24.763l124.186,72.498v16.757
	c0,10.082,8.204,18.286,18.286,18.286h22.99c10.083,0,18.286-8.203,18.286-18.286v-31.79c0-4.329-3.508-7.837-7.837-7.837
	c-4.328,0-7.837,3.508-7.837,7.837v31.792c0,1.416-1.196,2.612-2.612,2.612h-22.99c-1.416,0-2.612-1.196-2.612-2.612V76.529
	c0-1.417,1.196-2.612,2.612-2.612h22.99c1.416,0,2.612,1.195,2.612,2.612v262.019c0,4.329,3.509,7.837,7.837,7.837
	c4.329,0,7.837-3.508,7.837-7.837v-52.108c19.615-7.426,33.616-26.538,33.616-48.898S372.331,196.069,352.716,188.642z
	 M49.558,272.259H28.735c-7.202,0-13.061-5.859-13.061-13.061v-43.314c0-7.202,5.859-13.061,13.061-13.061h20.824V272.259z
	 M153.296,434.42c0,1.987-1.658,3.668-3.622,3.668h-46.243c-1.962,0-3.621-1.679-3.621-3.668V306.816h50.873
	c0.889,0,1.756-0.086,2.612-0.208V434.42z M172.035,349.734c1.26,0,2.326,1.084,2.326,2.366v16.637c0,1.282-1.065,2.366-2.326,2.366
	h-3.066v-21.367h3.066V349.734z M352.716,269.118v-63.155c10.721,6.337,17.943,18.115,17.943,31.578
	C370.659,251.002,363.436,262.781,352.716,269.118z"/>
<path d="M466.782,300.836c-15.032,13.014-34.137,20.262-53.797,20.404c-4.328,0.031-7.812,3.566-7.779,7.894
	c0.031,4.308,3.534,7.779,7.836,7.779c0.019,0,0.039,0,0.059,0c23.386-0.17,46.094-8.775,63.941-24.229
	c3.273-2.833,3.628-7.782,0.795-11.054C475.001,298.357,470.05,298.001,466.782,300.836z"/>
<path d="M483.279,166.434c-18.249-18.244-42.472-28.264-68.281-28.264c-0.241,0-0.484,0-0.725,0.002
	c-4.328,0.031-7.812,3.565-7.779,7.894c0.031,4.308,3.534,7.779,7.836,7.779c0.02,0,0.039,0,0.059,0
	c0.204-0.002,0.404-0.002,0.608-0.002c21.621,0,41.917,8.395,57.203,23.675c15.715,15.711,24.283,36.777,24.127,59.317
	c-0.092,13.107-3.087,25.683-8.9,37.376c-1.927,3.876-0.347,8.58,3.529,10.506c1.12,0.557,2.31,0.821,3.483,0.821
	c2.881-0.001,5.654-1.595,7.024-4.35c6.885-13.847,10.43-28.733,10.54-44.244C512.185,210.176,501.986,185.135,483.279,166.434z"/>
<path d="M413.371,266.369c-4.328,0.031-7.812,3.564-7.78,7.893c0.03,4.309,3.534,7.78,7.836,7.78c0.019,0,0.038,0,0.057,0
	c24.786-0.178,45.094-20.234,45.27-44.711c0.084-11.803-4.467-22.9-12.817-31.248c-8.421-8.42-19.669-13.043-31.71-13.043
	c-0.113,0-0.227,0-0.341,0.001c-4.328,0.031-7.812,3.565-7.779,7.894c0.031,4.308,3.534,7.779,7.836,7.779
	c0.092-0.002,0.188-0.002,0.282-0.001c7.853,0,15.173,2.998,20.63,8.454c5.357,5.357,8.279,12.478,8.224,20.052
	C442.966,253.176,429.639,266.253,413.371,266.369z"/>
<path d="M120.463,206.698H94.434c-4.328,0-7.837,3.508-7.837,7.837c0,4.329,3.509,7.837,7.837,7.837h26.029
	c4.328,0,7.837-3.508,7.837-7.837C128.3,210.205,124.791,206.698,120.463,206.698z"/>
<path d="M120.463,229.703H94.434c-4.328,0-7.837,3.508-7.837,7.837c0,4.329,3.509,7.837,7.837,7.837h26.029
	c4.328,0,7.837-3.508,7.837-7.837C128.3,233.212,124.791,229.703,120.463,229.703z"/>
<path d="M120.463,252.71H94.434c-4.328,0-7.837,3.508-7.837,7.837c0,4.329,3.509,7.837,7.837,7.837h26.029
	c4.328,0,7.837-3.508,7.837-7.837C128.3,256.217,124.791,252.71,120.463,252.71z"/>
<g>
</g>
<g>
</g>
<g>
</g>
<g>
</g>
<g>
</g>
<g>
</g>
<g>
</g>
<g>
</g>
<g>
</g>
<g>
</g>
<g>
</g>
<g>
</g>
<g>
</g>
<g>
</g>
<g>
</g>
</svg>
