<svg id="Layer_1" data-name="Layer 1" xmlns="http://www.w3.org/2000/svg" viewBox="0 0 280.72 180.84"><defs><style>.cls-1{fill:#fff;}</style></defs><title>Untitled-1aaa</title><path class="cls-1" d="M299.33,209.44a40.13,40.13,0,0,0-40.21,40.06v.07a39.88,39.88,0,0,0,11.71,28.33L371.05,378.47a40.12,40.12,0,0,0,56.86,0L528.13,277.9a39.88,39.88,0,0,0,11.71-28.33v-.07a40.14,40.14,0,0,0-68.56-28.26l-71.8,72.05-71.8-72.05A39.87,39.87,0,0,0,299.33,209.44Zm13.91,26.2,79,79.3a10.2,10.2,0,0,0,14.45,0l79-79.3a19.73,19.73,0,0,1,33.71,13.9v0a19.6,19.6,0,0,1-5.75,13.93L413.46,364.08a19.75,19.75,0,0,1-28,0L285.28,263.5a19.57,19.57,0,0,1-5.76-13.93v0a19.74,19.74,0,0,1,33.72-13.9Z" transform="translate(-259.12 -209.44)"/><path class="cls-1" d="M361.67,330.18l7.14,7.14a10.2,10.2,0,0,0,14.43-14.43l-7.14-7.14a10.2,10.2,0,0,0-14.43,14.43Z" transform="translate(-259.12 -209.44)"/><path class="cls-1" d="M289.26,257.76l50,50a10.2,10.2,0,0,0,14.43-14.43l-50-50a10.2,10.2,0,0,0-14.42,14.42Z" transform="translate(-259.12 -209.44)"/></svg>