<?xml version="1.0" encoding="iso-8859-1"?>
<!-- Generator: Adobe Illustrator 19.0.0, SVG Export Plug-In . SVG Version: 6.00 Build 0)  -->
<svg version="1.1" id="Layer_1" xmlns="http://www.w3.org/2000/svg" xmlns:xlink="http://www.w3.org/1999/xlink" x="0px" y="0px"
	 viewBox="0 0 512 512" style="enable-background:new 0 0 512 512;" xml:space="preserve">
<path style="fill:#ACABB1;" d="M41.079,276.671l40.637,143.36l0.496,1.746c8.224,23.487,30.386,39.214,55.274,39.214h245.243
	c26.473,0,49.648-17.753,56.546-43.299l30.634-141.021H41.079z M152.684,420.236c-2.296,1.24-4.915,1.951-7.707,1.951
	c-1.735,0-3.406-0.269-4.969-0.787c-6.5-2.091-11.199-8.192-11.199-15.382V328.41c0-8.925,7.243-16.168,16.168-16.168
	s16.168,7.243,16.168,16.168v77.608c0,6.133-3.417,11.469-8.451,14.207L152.684,420.236z M239.476,406.018
	c0,8.925-7.243,16.168-16.168,16.168c-4.473,0-8.505-1.811-11.436-4.743c-2.296-2.296-3.902-5.271-4.484-8.612
	c-0.162-0.905-0.248-1.854-0.248-2.813V328.41c0-8.925,7.233-16.168,16.168-16.168c4.462,0,8.505,1.811,11.436,4.743
	c2.921,2.921,4.732,6.963,4.732,11.426V406.018z M317.796,406.018c0,8.925-7.233,16.168-16.168,16.168
	c-4.462,0-8.505-1.811-11.436-4.743c-2.921-2.921-4.732-6.963-4.732-11.426V328.41c0-8.925,7.243-16.168,16.168-16.168
	c4.473,0,8.505,1.811,11.436,4.743c2.921,2.921,4.732,6.963,4.732,11.426V406.018z M396.126,406.018
	c0,8.925-7.243,16.168-16.168,16.168c-8.925,0-16.168-7.243-16.168-16.168V328.41c0-8.925,7.243-16.168,16.168-16.168
	c8.925,0,16.168,7.243,16.168,16.168V406.018z"/>
<path style="fill:#E0E0E2;" d="M377.468,276.671c-16.212,26.505-36.379,50.327-59.672,70.645V328.41
	c0-4.462-1.811-8.505-4.732-11.426c-2.932-2.932-6.963-4.743-11.436-4.743c-8.925,0-16.168,7.243-16.168,16.168v43.536
	c-14.508,9.604-29.879,17.979-45.983,25.007V328.41c0-4.462-1.811-8.505-4.732-11.426c-2.932-2.932-6.974-4.743-11.436-4.743
	c-8.936,0-16.168,7.243-16.168,16.168v77.608c0,0.959,0.086,1.908,0.248,2.813c-17.602,5.411-35.883,9.27-54.692,11.393
	c5.034-2.738,8.451-8.073,8.451-14.207V328.41c0-8.925-7.243-16.168-16.168-16.168s-16.168,7.243-16.168,16.168v77.608
	c0,7.19,4.7,13.29,11.199,15.382c-7.254,0.528-14.584,0.787-21.978,0.787c-12.288,0-24.404-0.733-36.314-2.156l-40.637-143.36
	L377.468,276.671L377.468,276.671z"/>
<path style="fill:#CD2A00;" d="M503.916,260.502c0,8.925-7.243,16.168-16.168,16.168H24.253c-8.925,0-16.168-7.243-16.168-16.168
	s7.243-16.168,16.168-16.168h17.893l4.096-11.577l26.484-74.752c6.899-25.557,30.073-43.299,56.546-43.299h245.243
	c9.302,0,18.216,2.188,26.16,6.155c13.334,6.672,23.962,18.335,29.114,33.048l41.143,90.425h16.815
	C496.672,244.334,503.916,251.577,503.916,260.502z"/>
<path style="fill:#FF5023;" d="M400.675,120.861c-32.617,65.234-156.553,113.772-304.473,113.772
	c-17.009,0-33.695-0.647-49.96-1.876l26.484-74.752c6.899-25.557,30.073-43.299,56.546-43.299h245.243
	C383.817,114.706,392.731,116.894,400.675,120.861z"/>
<g>
	<path style="fill:#FFFFFF;" d="M109.498,185.593l-15.24-5.398l4.899-13.836c4.492-16.068,19.217-27.262,35.927-27.262h29.295
		v16.168h-29.295c-9.53,0-17.921,6.425-20.406,15.625l-0.184,0.592L109.498,185.593z"/>
	
		<rect x="86.081" y="197.007" transform="matrix(-0.9426 -0.3339 0.3339 -0.9426 114.5921 428.9961)" style="fill:#FFFFFF;" width="16.167" height="15.287"/>
</g>
<path d="M379.958,430.271c13.372,0,24.253-10.88,24.253-24.253V328.41c0-13.372-10.88-24.253-24.253-24.253
	c-13.372,0-24.253,10.88-24.253,24.253v77.608C355.705,419.391,366.586,430.271,379.958,430.271z M371.874,328.41
	c0-4.458,3.626-8.084,8.084-8.084s8.084,3.626,8.084,8.084v77.608c0,4.458-3.626,8.084-8.084,8.084s-8.084-3.626-8.084-8.084V328.41
	z"/>
<path d="M144.977,430.271c13.372,0,24.253-10.88,24.253-24.253V328.41c0-13.372-10.88-24.253-24.253-24.253
	c-13.372,0-24.253,10.88-24.253,24.253v77.608C120.724,419.391,131.604,430.271,144.977,430.271z M136.893,328.41
	c0-4.458,3.626-8.084,8.084-8.084s8.084,3.626,8.084,8.084v77.608c0,4.458-3.626,8.084-8.084,8.084s-8.084-3.626-8.084-8.084V328.41
	z"/>
<path d="M223.304,430.271c13.372,0,24.253-10.88,24.253-24.253V328.41c0-13.372-10.88-24.253-24.253-24.253
	c-13.372,0-24.253,10.88-24.253,24.253v77.608C199.052,419.391,209.932,430.271,223.304,430.271z M215.22,328.41
	c0-4.458,3.626-8.084,8.084-8.084s8.084,3.626,8.084,8.084v77.608c0,4.458-3.626,8.084-8.084,8.084s-8.084-3.626-8.084-8.084V328.41
	z"/>
<path d="M301.631,430.271c13.372,0,24.253-10.88,24.253-24.253V328.41c0-13.372-10.88-24.253-24.253-24.253
	c-13.372,0-24.253,10.88-24.253,24.253v77.608C277.378,419.391,288.258,430.271,301.631,430.271z M293.546,328.41
	c0-4.458,3.626-8.084,8.084-8.084s8.084,3.626,8.084,8.084v77.608c0,4.458-3.626,8.084-8.084,8.084s-8.084-3.626-8.084-8.084V328.41
	z"/>
<path d="M487.747,236.25h-11.613l-38.835-85.364c-9.447-26.493-34.628-44.266-62.781-44.266h-39.882V42.925h-152.34v63.693h-53.028
	c-29.946,0-56.325,20.12-64.264,48.969L36.438,236.25H24.253C10.88,236.25,0,247.13,0,260.502c0,13.372,10.88,24.253,24.253,24.253
	h10.716l39.46,139.23l0.149,0.468c9.345,26.691,34.625,44.623,62.905,44.623h245.25c30.054,0,56.514-20.263,64.347-49.276
	l29.345-135.044h11.323c13.372,0,24.253-10.88,24.253-24.253C512,247.13,501.12,236.25,487.747,236.25z M198.464,59.093h120.003
	v47.525H198.464L198.464,59.093L198.464,59.093z M80.344,160.701l0.184-0.592c5.935-21.976,25.977-37.323,48.739-37.323
	l245.25,0.001c21.419,0,40.568,13.583,47.647,33.797l0.12,0.343l36.087,79.321H53.59L80.344,160.701z M431.42,415.772
	c-5.996,21.874-25.989,37.135-48.687,37.135h-245.25c-21.341,0-40.426-13.482-47.567-33.574L51.773,284.755h408.107L431.42,415.772z
	 M487.747,268.587h-7.809H30.386h-6.133c-4.458,0-8.084-3.626-8.084-8.084c0-4.458,3.626-8.084,8.084-8.084h6.459H483.49h4.258
	c4.458,0,8.084,3.626,8.084,8.084C495.832,264.961,492.206,268.587,487.747,268.587z"/>
<g>
</g>
<g>
</g>
<g>
</g>
<g>
</g>
<g>
</g>
<g>
</g>
<g>
</g>
<g>
</g>
<g>
</g>
<g>
</g>
<g>
</g>
<g>
</g>
<g>
</g>
<g>
</g>
<g>
</g>
</svg>
